<svg width="332" height="142" viewBox="0 0 332 142" fill="none" xmlns="http://www.w3.org/2000/svg">
<path d="M162.878 96.9479C165.368 100.812 171.314 99.5506 172.021 95.0079L175.858 70.3416C176.404 66.8345 180.328 64.9965 183.371 66.8226L185.598 68.1587C188.65 69.9898 192.583 68.1366 193.114 64.6175L197.209 37.4908C197.396 36.2502 198.043 35.1253 199.021 34.3394L208.94 26.369C211.777 24.0899 216.02 25.507 216.918 29.0331L229.581 78.7791C229.853 79.8452 230.468 80.7921 231.332 81.4729L248.5 95L262.934 108.16C264.477 109.567 266.732 109.867 268.589 108.912L284.954 100.499C285.955 99.9838 286.754 99.146 287.219 98.1209L291.898 87.8278C293.054 85.2858 296.067 84.1828 298.59 85.3781L310.696 91.1123C312.143 91.7979 313.175 93.1354 313.47 94.7095L319.39 126.282C319.967 129.359 317.606 132.204 314.475 132.204H20.1142C16.3915 132.204 13.9743 128.281 15.648 124.956L34.5 87.5L48.4063 47.3737C49.8844 43.1088 55.8104 42.831 57.681 46.9388L61.7293 55.8286C61.909 56.2232 62.1393 56.5928 62.4143 56.928L72.3153 68.9948C74.7984 72.0211 79.6388 71.1492 80.9098 67.4467L87.8469 47.2385C88.755 44.5932 91.6563 43.2072 94.2848 44.1629L97.4124 45.3003C99.2866 45.9818 101.387 45.4844 102.756 44.0346L111.993 34.2549C114.413 31.6933 118.652 32.371 120.152 35.5592L129.395 55.2009C129.772 56.0013 130.354 56.6875 131.083 57.1893L146.388 67.7337C147.116 68.2356 147.698 68.9217 148.075 69.7221L155.5 85.5L162.878 96.9479Z" fill="url(#paint0_linear_3_173)"/>
<line x1="167.004" y1="132.012" x2="167.496" y2="17.9978" stroke="white" stroke-dasharray="2 2"/>
<path d="M163.699 12.2102V11.3409L167.534 5.27273H168.165V6.61932H167.739L164.841 11.2045V11.2727H170.006V12.2102H163.699ZM167.807 14V11.946V11.5412V5.27273H168.812V14H167.807Z" fill="white"/>
<path d="M211.176 20L215.08 12.2784V12.2102H210.58V11.2727H216.17V12.2614L212.284 20H211.176Z" fill="white"/>
<circle cx="213" cy="25" r="2" fill="white"/>
<defs>
<linearGradient id="paint0_linear_3_173" x1="166.25" y1="46.6283" x2="166.25" y2="132.204" gradientUnits="userSpaceOnUse">
<stop stop-color="#9227F9"/>
<stop offset="1" stop-color="#633BF3" stop-opacity="0"/>
</linearGradient>
</defs>
</svg>
