<svg width="327" height="192" viewBox="0 0 327 192" fill="none" xmlns="http://www.w3.org/2000/svg">
<rect x="66" y="6" width="260" height="83" rx="25" fill="white"/>
<line x1="88" y1="24" x2="88" y2="72" stroke="#9227F9" stroke-width="2" stroke-linecap="round"/>
<path d="M155.004 42V31.8182H158.902C159.638 31.8182 160.249 31.9342 160.737 32.1662C161.227 32.3949 161.593 32.7081 161.835 33.1058C162.08 33.5036 162.203 33.9543 162.203 34.4581C162.203 34.8724 162.124 35.227 161.964 35.522C161.805 35.8137 161.592 36.0507 161.323 36.233C161.055 36.4152 160.755 36.5462 160.423 36.6257V36.7251C160.785 36.745 161.131 36.8561 161.462 37.0582C161.797 37.2571 162.071 37.5388 162.283 37.9034C162.495 38.268 162.601 38.7088 162.601 39.2259C162.601 39.7528 162.473 40.2268 162.218 40.6477C161.963 41.0653 161.578 41.3951 161.065 41.6371C160.551 41.879 159.905 42 159.126 42H155.004ZM156.849 40.4588H158.832C159.502 40.4588 159.984 40.3312 160.279 40.076C160.577 39.8175 160.727 39.486 160.727 39.0817C160.727 38.7801 160.652 38.5083 160.503 38.2663C160.354 38.0211 160.142 37.8288 159.866 37.6896C159.591 37.5471 159.263 37.4759 158.882 37.4759H156.849V40.4588ZM156.849 36.1484H158.673C158.991 36.1484 159.278 36.0904 159.533 35.9744C159.789 35.8551 159.989 35.6877 160.135 35.4723C160.284 35.2536 160.359 34.995 160.359 34.6967C160.359 34.3023 160.219 33.9775 159.941 33.7223C159.666 33.4671 159.257 33.3395 158.713 33.3395H156.849V36.1484ZM164.126 42V34.3636H165.926V42H164.126ZM165.031 33.2798C164.746 33.2798 164.5 33.1854 164.295 32.9964C164.089 32.8042 163.987 32.5739 163.987 32.3054C163.987 32.0336 164.089 31.8033 164.295 31.6143C164.5 31.4221 164.746 31.326 165.031 31.326C165.319 31.326 165.564 31.4221 165.767 31.6143C165.972 31.8033 166.075 32.0336 166.075 32.3054C166.075 32.5739 165.972 32.8042 165.767 32.9964C165.564 33.1854 165.319 33.2798 165.031 33.2798ZM171.107 42.1491C170.362 42.1491 169.715 41.9851 169.168 41.657C168.621 41.3288 168.197 40.8698 167.896 40.2798C167.597 39.6899 167.448 39.0005 167.448 38.2116C167.448 37.4228 167.597 36.7318 167.896 36.1385C168.197 35.5452 168.621 35.0845 169.168 34.7564C169.715 34.4283 170.362 34.2642 171.107 34.2642C171.853 34.2642 172.499 34.4283 173.046 34.7564C173.593 35.0845 174.016 35.5452 174.314 36.1385C174.616 36.7318 174.766 37.4228 174.766 38.2116C174.766 39.0005 174.616 39.6899 174.314 40.2798C174.016 40.8698 173.593 41.3288 173.046 41.657C172.499 41.9851 171.853 42.1491 171.107 42.1491ZM171.117 40.7074C171.522 40.7074 171.86 40.5964 172.131 40.3743C172.403 40.1489 172.605 39.8473 172.738 39.4695C172.874 39.0916 172.942 38.6707 172.942 38.2067C172.942 37.7393 172.874 37.3168 172.738 36.9389C172.605 36.5578 172.403 36.2545 172.131 36.0291C171.86 35.8037 171.522 35.6911 171.117 35.6911C170.703 35.6911 170.358 35.8037 170.083 36.0291C169.811 36.2545 169.607 36.5578 169.472 36.9389C169.339 37.3168 169.273 37.7393 169.273 38.2067C169.273 38.6707 169.339 39.0916 169.472 39.4695C169.607 39.8473 169.811 40.1489 170.083 40.3743C170.358 40.5964 170.703 40.7074 171.117 40.7074Z" fill="black"/>
<path d="M156.159 60V51.2727H158.976C159.595 51.2727 160.112 51.392 160.527 51.6307C160.945 51.8665 161.259 52.1875 161.469 52.5938C161.682 53 161.788 53.4574 161.788 53.9659C161.788 54.4744 161.683 54.9332 161.473 55.3423C161.263 55.7486 160.95 56.071 160.536 56.3097C160.121 56.5455 159.605 56.6634 158.989 56.6634H156.773V55.9474H158.967C159.425 55.9474 159.804 55.8622 160.105 55.6918C160.406 55.5185 160.631 55.2827 160.778 54.9844C160.929 54.6861 161.004 54.3466 161.004 53.9659C161.004 53.5852 160.929 53.2457 160.778 52.9474C160.631 52.6491 160.405 52.4148 160.101 52.2443C159.8 52.0739 159.418 51.9886 158.955 51.9886H156.956V60H156.159ZM164.26 51.2727V60H163.501V51.2727H164.26ZM168.095 60.1491C167.7 60.1491 167.339 60.0724 167.013 59.919C166.686 59.7628 166.426 59.5384 166.233 59.2457C166.04 58.9503 165.943 58.5923 165.943 58.1719C165.943 57.848 166.004 57.5753 166.126 57.3537C166.249 57.1321 166.422 56.9503 166.646 56.8082C166.871 56.6662 167.136 56.554 167.443 56.4716C167.75 56.3892 168.088 56.3253 168.457 56.2798C168.824 56.2344 169.134 56.1946 169.386 56.1605C169.642 56.1264 169.837 56.0724 169.97 55.9986C170.104 55.9247 170.17 55.8054 170.17 55.6406V55.4872C170.17 55.0412 170.037 54.6903 169.77 54.4347C169.506 54.1761 169.125 54.0469 168.628 54.0469C168.156 54.0469 167.771 54.1506 167.473 54.358C167.178 54.5653 166.97 54.8097 166.851 55.0909L166.131 54.831C166.278 54.473 166.483 54.1875 166.744 53.9744C167.006 53.7585 167.298 53.6037 167.622 53.5099C167.946 53.4134 168.274 53.3651 168.607 53.3651C168.857 53.3651 169.116 53.3977 169.386 53.4631C169.659 53.5284 169.912 53.642 170.145 53.804C170.378 53.9631 170.567 54.1861 170.712 54.473C170.857 54.7571 170.929 55.1179 170.929 55.5554V60H170.17V58.9645H170.124C170.033 59.1577 169.898 59.3452 169.719 59.527C169.54 59.7088 169.315 59.858 169.045 59.9744C168.776 60.0909 168.459 60.1491 168.095 60.1491ZM168.197 59.4545C168.601 59.4545 168.95 59.3651 169.246 59.1861C169.541 59.0071 169.768 58.7699 169.928 58.4744C170.089 58.1761 170.17 57.848 170.17 57.4901V56.544C170.114 56.598 170.018 56.6463 169.885 56.6889C169.754 56.7315 169.602 56.7699 169.429 56.804C169.259 56.8352 169.088 56.8622 168.918 56.8849C168.747 56.9077 168.594 56.9276 168.457 56.9446C168.088 56.9901 167.773 57.0611 167.511 57.1577C167.25 57.2543 167.05 57.3878 166.911 57.5582C166.771 57.7259 166.702 57.9418 166.702 58.206C166.702 58.6037 166.844 58.9119 167.128 59.1307C167.412 59.3466 167.768 59.4545 168.197 59.4545ZM173.705 55.9091V60H172.947V53.4545H173.684V54.4815H173.752C173.906 54.1463 174.144 53.8778 174.468 53.6761C174.795 53.4716 175.198 53.3693 175.678 53.3693C176.119 53.3693 176.505 53.4616 176.837 53.6463C177.173 53.8281 177.433 54.0966 177.617 54.4517C177.805 54.8068 177.898 55.2429 177.898 55.7599V60H177.14V55.8068C177.14 55.2699 176.989 54.8452 176.688 54.5327C176.39 54.2202 175.989 54.0639 175.487 54.0639C175.143 54.0639 174.837 54.1378 174.57 54.2855C174.303 54.4332 174.092 54.6463 173.935 54.9247C173.782 55.2003 173.705 55.5284 173.705 55.9091ZM182.474 53.4545V54.1151H179.35V53.4545H182.474ZM180.326 51.8864H181.089V58.2912C181.089 58.5639 181.136 58.7784 181.23 58.9347C181.324 59.0881 181.446 59.1974 181.596 59.2628C181.747 59.3253 181.907 59.3565 182.078 59.3565C182.177 59.3565 182.262 59.3509 182.333 59.3395C182.404 59.3253 182.467 59.3111 182.521 59.2969L182.683 59.983C182.609 60.0114 182.518 60.0369 182.41 60.0597C182.302 60.0852 182.169 60.098 182.01 60.098C181.731 60.098 181.463 60.0369 181.204 59.9148C180.949 59.7926 180.738 59.6108 180.574 59.3693C180.409 59.1278 180.326 58.8281 180.326 58.4702V51.8864ZM186.773 60.1364C186.162 60.1364 185.634 59.9943 185.188 59.7102C184.741 59.4233 184.396 59.027 184.152 58.5213C183.911 58.0128 183.79 57.4276 183.79 56.7656C183.79 56.1065 183.911 55.5213 184.152 55.0099C184.396 54.4957 184.733 54.0937 185.162 53.804C185.594 53.5114 186.092 53.3651 186.658 53.3651C187.013 53.3651 187.355 53.4304 187.685 53.5611C188.014 53.6889 188.31 53.8864 188.571 54.1534C188.835 54.4176 189.044 54.7514 189.197 55.1548C189.351 55.5554 189.428 56.0298 189.428 56.5781V56.9531H184.314V56.2841H188.652C188.652 55.8636 188.567 55.4858 188.396 55.1506C188.229 54.8125 187.994 54.5455 187.693 54.3494C187.395 54.1534 187.05 54.0554 186.658 54.0554C186.243 54.0554 185.878 54.1662 185.562 54.3878C185.247 54.6094 185 54.902 184.821 55.2656C184.645 55.6293 184.555 56.027 184.553 56.4588V56.8594C184.553 57.3793 184.642 57.8338 184.821 58.223C185.003 58.6094 185.26 58.9091 185.592 59.1222C185.925 59.3352 186.318 59.4418 186.773 59.4418C187.082 59.4418 187.354 59.3935 187.587 59.2969C187.822 59.2003 188.02 59.071 188.179 58.9091C188.341 58.7443 188.463 58.5639 188.545 58.3679L189.266 58.6023C189.166 58.8778 189.003 59.1321 188.776 59.3651C188.551 59.598 188.27 59.7855 187.932 59.9276C187.597 60.0668 187.21 60.1364 186.773 60.1364ZM191.099 60V53.4545H191.836V54.4602H191.892C192.022 54.1307 192.25 53.8651 192.574 53.6634C192.9 53.4588 193.27 53.3565 193.681 53.3565C193.744 53.3565 193.814 53.358 193.89 53.3608C193.967 53.3636 194.031 53.3665 194.082 53.3693V54.1406C194.048 54.1349 193.988 54.1264 193.903 54.1151C193.818 54.1037 193.725 54.098 193.626 54.098C193.285 54.098 192.981 54.1705 192.714 54.3153C192.45 54.4574 192.241 54.6548 192.088 54.9077C191.934 55.1605 191.858 55.4489 191.858 55.7727V60H191.099ZM201.108 60.1364C200.571 60.1364 200.101 59.9943 199.697 59.7102C199.294 59.4261 198.979 59.0298 198.751 58.5213C198.527 58.0128 198.415 57.4205 198.415 56.7443C198.415 56.071 198.527 55.4815 198.751 54.9759C198.979 54.4673 199.295 54.0724 199.702 53.7912C200.108 53.5071 200.581 53.3651 201.121 53.3651C201.518 53.3651 201.849 53.4361 202.114 53.5781C202.378 53.7173 202.589 53.8906 202.749 54.098C202.908 54.3054 203.031 54.5071 203.119 54.7031H203.188V51.2727H203.95V60H203.209V58.7855H203.119C203.031 58.9844 202.906 59.1889 202.744 59.3991C202.582 59.6065 202.368 59.7812 202.101 59.9233C201.837 60.0653 201.506 60.1364 201.108 60.1364ZM201.197 59.4418C201.621 59.4418 201.982 59.3267 202.28 59.0966C202.578 58.8636 202.805 58.544 202.962 58.1378C203.121 57.7287 203.2 57.2599 203.2 56.7315C203.2 56.2088 203.122 55.7472 202.966 55.3466C202.81 54.9432 202.582 54.6278 202.284 54.4006C201.986 54.1705 201.624 54.0554 201.197 54.0554C200.76 54.0554 200.391 54.1747 200.089 54.4134C199.791 54.6491 199.564 54.9687 199.408 55.3722C199.254 55.7756 199.178 56.2287 199.178 56.7315C199.178 57.2401 199.256 57.6989 199.412 58.108C199.568 58.517 199.795 58.8423 200.094 59.0838C200.395 59.3224 200.763 59.4418 201.197 59.4418ZM208.757 60.1364C208.146 60.1364 207.618 59.9943 207.172 59.7102C206.726 59.4233 206.381 59.027 206.136 58.5213C205.895 58.0128 205.774 57.4276 205.774 56.7656C205.774 56.1065 205.895 55.5213 206.136 55.0099C206.381 54.4957 206.717 54.0937 207.146 53.804C207.578 53.5114 208.077 53.3651 208.642 53.3651C208.997 53.3651 209.339 53.4304 209.669 53.5611C209.999 53.6889 210.294 53.8864 210.555 54.1534C210.82 54.4176 211.028 54.7514 211.182 55.1548C211.335 55.5554 211.412 56.0298 211.412 56.5781V56.9531H206.298V56.2841H210.636C210.636 55.8636 210.551 55.4858 210.381 55.1506C210.213 54.8125 209.979 54.5455 209.678 54.3494C209.379 54.1534 209.034 54.0554 208.642 54.0554C208.227 54.0554 207.862 54.1662 207.547 54.3878C207.232 54.6094 206.984 54.902 206.805 55.2656C206.629 55.6293 206.54 56.027 206.537 56.4588V56.8594C206.537 57.3793 206.626 57.8338 206.805 58.223C206.987 58.6094 207.244 58.9091 207.577 59.1222C207.909 59.3352 208.303 59.4418 208.757 59.4418C209.067 59.4418 209.338 59.3935 209.571 59.2969C209.807 59.2003 210.004 59.071 210.163 58.9091C210.325 58.7443 210.447 58.5639 210.53 58.3679L211.25 58.6023C211.151 58.8778 210.987 59.1321 210.76 59.3651C210.536 59.598 210.254 59.7855 209.916 59.9276C209.581 60.0668 209.195 60.1364 208.757 60.1364ZM217.481 54.8906L216.787 55.0866C216.718 54.8906 216.622 54.7131 216.497 54.554C216.372 54.3949 216.208 54.2685 216.007 54.1747C215.808 54.081 215.561 54.0341 215.265 54.0341C214.822 54.0341 214.458 54.1392 214.174 54.3494C213.89 54.5597 213.748 54.831 213.748 55.1634C213.748 55.4446 213.845 55.6733 214.038 55.8494C214.234 56.0227 214.535 56.1605 214.941 56.2628L215.93 56.5057C216.478 56.6392 216.889 56.8509 217.162 57.1406C217.437 57.4304 217.575 57.794 217.575 58.2315C217.575 58.6009 217.473 58.929 217.268 59.2159C217.064 59.5028 216.778 59.7287 216.412 59.8935C216.048 60.0554 215.626 60.1364 215.146 60.1364C214.507 60.1364 213.98 59.9929 213.565 59.706C213.15 59.4162 212.885 58.9986 212.768 58.4531L213.497 58.2741C213.591 58.6634 213.774 58.9574 214.047 59.1562C214.322 59.3551 214.684 59.4545 215.133 59.4545C215.636 59.4545 216.038 59.3423 216.339 59.1179C216.64 58.8906 216.791 58.6065 216.791 58.2656C216.791 58.0014 216.703 57.7798 216.527 57.6009C216.35 57.419 216.083 57.2855 215.725 57.2003L214.656 56.9446C214.088 56.8082 213.667 56.5923 213.395 56.2969C213.122 56.0014 212.985 55.6349 212.985 55.1974C212.985 54.8366 213.083 54.5199 213.279 54.2472C213.475 53.9716 213.745 53.7557 214.089 53.5994C214.433 53.4432 214.825 53.3651 215.265 53.3651C215.865 53.3651 216.343 53.5014 216.701 53.7741C217.062 54.044 217.322 54.4162 217.481 54.8906ZM224.439 60.1491C224.044 60.1491 223.683 60.0724 223.357 59.919C223.03 59.7628 222.77 59.5384 222.577 59.2457C222.384 58.9503 222.287 58.5923 222.287 58.1719C222.287 57.848 222.348 57.5753 222.47 57.3537C222.592 57.1321 222.766 56.9503 222.99 56.8082C223.214 56.6662 223.48 56.554 223.787 56.4716C224.094 56.3892 224.432 56.3253 224.801 56.2798C225.168 56.2344 225.477 56.1946 225.73 56.1605C225.986 56.1264 226.18 56.0724 226.314 55.9986C226.447 55.9247 226.514 55.8054 226.514 55.6406V55.4872C226.514 55.0412 226.381 54.6903 226.114 54.4347C225.849 54.1761 225.469 54.0469 224.972 54.0469C224.5 54.0469 224.115 54.1506 223.817 54.358C223.521 54.5653 223.314 54.8097 223.195 55.0909L222.474 54.831C222.622 54.473 222.827 54.1875 223.088 53.9744C223.349 53.7585 223.642 53.6037 223.966 53.5099C224.29 53.4134 224.618 53.3651 224.95 53.3651C225.2 53.3651 225.46 53.3977 225.73 53.4631C226.003 53.5284 226.256 53.642 226.489 53.804C226.722 53.9631 226.911 54.1861 227.055 54.473C227.2 54.7571 227.273 55.1179 227.273 55.5554V60H226.514V58.9645H226.467C226.376 59.1577 226.241 59.3452 226.062 59.527C225.884 59.7088 225.659 59.858 225.389 59.9744C225.119 60.0909 224.803 60.1491 224.439 60.1491ZM224.541 59.4545C224.945 59.4545 225.294 59.3651 225.589 59.1861C225.885 59.0071 226.112 58.7699 226.271 58.4744C226.433 58.1761 226.514 57.848 226.514 57.4901V56.544C226.457 56.598 226.362 56.6463 226.229 56.6889C226.098 56.7315 225.946 56.7699 225.773 56.804C225.602 56.8352 225.432 56.8622 225.261 56.8849C225.091 56.9077 224.938 56.9276 224.801 56.9446C224.432 56.9901 224.116 57.0611 223.855 57.1577C223.594 57.2543 223.393 57.3878 223.254 57.5582C223.115 57.7259 223.045 57.9418 223.045 58.206C223.045 58.6037 223.188 58.9119 223.472 59.1307C223.756 59.3466 224.112 59.4545 224.541 59.4545ZM229.29 60V53.4545H230.028V54.4602H230.083C230.214 54.1307 230.441 53.8651 230.765 53.6634C231.092 53.4588 231.461 53.3565 231.873 53.3565C231.935 53.3565 232.005 53.358 232.082 53.3608C232.158 53.3636 232.222 53.3665 232.273 53.3693V54.1406C232.239 54.1349 232.18 54.1264 232.094 54.1151C232.009 54.1037 231.917 54.098 231.817 54.098C231.477 54.098 231.173 54.1705 230.906 54.3153C230.641 54.4574 230.433 54.6548 230.279 54.9077C230.126 55.1605 230.049 55.4489 230.049 55.7727V60H229.29ZM233.725 60V51.2727H234.488V54.7031H234.556C234.642 54.5071 234.764 54.3054 234.923 54.098C235.085 53.8906 235.297 53.7173 235.558 53.5781C235.822 53.4361 236.154 53.3651 236.555 53.3651C237.092 53.3651 237.564 53.5071 237.97 53.7912C238.376 54.0724 238.693 54.4673 238.92 54.9759C239.147 55.4815 239.261 56.071 239.261 56.7443C239.261 57.4205 239.147 58.0128 238.92 58.5213C238.696 59.0298 238.38 59.4261 237.974 59.7102C237.571 59.9943 237.102 60.1364 236.568 60.1364C236.17 60.1364 235.838 60.0653 235.571 59.9233C235.306 59.7812 235.093 59.6065 234.931 59.3991C234.77 59.1889 234.645 58.9844 234.556 58.7855H234.463V60H233.725ZM234.475 56.7315C234.475 57.2599 234.554 57.7287 234.71 58.1378C234.869 58.544 235.096 58.8636 235.392 59.0966C235.69 59.3267 236.051 59.4418 236.474 59.4418C236.909 59.4418 237.277 59.3224 237.578 59.0838C237.879 58.8423 238.108 58.517 238.264 58.108C238.42 57.6989 238.498 57.2401 238.498 56.7315C238.498 56.2287 238.42 55.7756 238.264 55.3722C238.11 54.9687 237.883 54.6491 237.582 54.4134C237.281 54.1747 236.912 54.0554 236.474 54.0554C236.048 54.0554 235.686 54.1705 235.387 54.4006C235.092 54.6278 234.866 54.9432 234.71 55.3466C234.554 55.7472 234.475 56.2088 234.475 56.7315ZM240.927 60V53.4545H241.664V54.4602H241.72C241.85 54.1307 242.078 53.8651 242.402 53.6634C242.728 53.4588 243.098 53.3565 243.51 53.3565C243.572 53.3565 243.642 53.358 243.718 53.3608C243.795 53.3636 243.859 53.3665 243.91 53.3693V54.1406C243.876 54.1349 243.816 54.1264 243.731 54.1151C243.646 54.1037 243.554 54.098 243.454 54.098C243.113 54.098 242.809 54.1705 242.542 54.3153C242.278 54.4574 242.069 54.6548 241.916 54.9077C241.762 55.1605 241.686 55.4489 241.686 55.7727V60H240.927ZM247.652 60.1364C247.041 60.1364 246.512 59.9943 246.066 59.7102C245.62 59.4233 245.275 59.027 245.031 58.5213C244.789 58.0128 244.669 57.4276 244.669 56.7656C244.669 56.1065 244.789 55.5213 245.031 55.0099C245.275 54.4957 245.612 54.0937 246.041 53.804C246.473 53.5114 246.971 53.3651 247.537 53.3651C247.892 53.3651 248.234 53.4304 248.564 53.5611C248.893 53.6889 249.189 53.8864 249.45 54.1534C249.714 54.4176 249.923 54.7514 250.076 55.1548C250.23 55.5554 250.306 56.0298 250.306 56.5781V56.9531H245.193V56.2841H249.531C249.531 55.8636 249.446 55.4858 249.275 55.1506C249.108 54.8125 248.873 54.5455 248.572 54.3494C248.274 54.1534 247.929 54.0554 247.537 54.0554C247.122 54.0554 246.757 54.1662 246.441 54.3878C246.126 54.6094 245.879 54.902 245.7 55.2656C245.524 55.6293 245.434 56.027 245.431 56.4588V56.8594C245.431 57.3793 245.521 57.8338 245.7 58.223C245.882 58.6094 246.139 58.9091 246.471 59.1222C246.804 59.3352 247.197 59.4418 247.652 59.4418C247.961 59.4418 248.233 59.3935 248.466 59.2969C248.701 59.2003 248.899 59.071 249.058 58.9091C249.22 58.7443 249.342 58.5639 249.424 58.3679L250.145 58.6023C250.045 58.8778 249.882 59.1321 249.654 59.3651C249.43 59.598 249.149 59.7855 248.811 59.9276C248.475 60.0668 248.089 60.1364 247.652 60.1364ZM256.376 54.8906L255.681 55.0866C255.613 54.8906 255.516 54.7131 255.391 54.554C255.266 54.3949 255.103 54.2685 254.901 54.1747C254.702 54.081 254.455 54.0341 254.16 54.0341C253.717 54.0341 253.353 54.1392 253.069 54.3494C252.785 54.5597 252.643 54.831 252.643 55.1634C252.643 55.4446 252.739 55.6733 252.933 55.8494C253.129 56.0227 253.43 56.1605 253.836 56.2628L254.825 56.5057C255.373 56.6392 255.783 56.8509 256.056 57.1406C256.332 57.4304 256.469 57.794 256.469 58.2315C256.469 58.6009 256.367 58.929 256.163 59.2159C255.958 59.5028 255.673 59.7287 255.306 59.8935C254.942 60.0554 254.521 60.1364 254.04 60.1364C253.401 60.1364 252.874 59.9929 252.46 59.706C252.045 59.4162 251.779 58.9986 251.663 58.4531L252.391 58.2741C252.485 58.6634 252.668 58.9574 252.941 59.1562C253.217 59.3551 253.579 59.4545 254.028 59.4545C254.531 59.4545 254.933 59.3423 255.234 59.1179C255.535 58.8906 255.685 58.6065 255.685 58.2656C255.685 58.0014 255.597 57.7798 255.421 57.6009C255.245 57.419 254.978 57.2855 254.62 57.2003L253.55 56.9446C252.982 56.8082 252.562 56.5923 252.289 56.2969C252.016 56.0014 251.88 55.6349 251.88 55.1974C251.88 54.8366 251.978 54.5199 252.174 54.2472C252.37 53.9716 252.64 53.7557 252.984 53.5994C253.327 53.4432 253.719 53.3651 254.16 53.3651C254.759 53.3651 255.238 53.5014 255.596 53.7741C255.957 54.044 256.217 54.4162 256.376 54.8906Z" fill="black"/>
<rect x="98" y="25" width="45" height="45" rx="22.5" fill="#9227F9"/>
<path d="M117.758 47.8828C121.117 51.0469 124.594 52.9219 129.164 53.625M123.574 44.6961C120.102 42.4531 116.508 44.0633 113.188 40.5477C112.414 39.7273 112.863 49.7469 117.02 53.5437C120.058 56.3172 124.75 56.0078 126.332 53.3125C127.914 50.6172 127.046 46.9387 123.574 44.6961V44.6961Z" stroke="white" stroke-width="2" stroke-linecap="round" stroke-linejoin="round"/>
<rect x="67" y="103" width="260" height="83" rx="25" fill="white"/>
<line x1="89" y1="121" x2="89" y2="169" stroke="#9227F9" stroke-width="2" stroke-linecap="round"/>
<path d="M156.004 128.818H158.261L161.284 136.196H161.403L164.426 128.818H166.683V139H164.913V132.005H164.819L162.005 138.97H160.683L157.869 131.99H157.774V139H156.004V128.818ZM170.81 139.154C170.326 139.154 169.89 139.068 169.502 138.896C169.118 138.72 168.813 138.461 168.587 138.12C168.365 137.779 168.254 137.358 168.254 136.857C168.254 136.426 168.334 136.07 168.493 135.788C168.652 135.507 168.869 135.281 169.144 135.112C169.419 134.943 169.729 134.816 170.074 134.729C170.422 134.64 170.781 134.575 171.153 134.536C171.6 134.489 171.963 134.448 172.241 134.411C172.52 134.371 172.722 134.312 172.848 134.232C172.977 134.149 173.042 134.022 173.042 133.849V133.82C173.042 133.445 172.931 133.155 172.709 132.95C172.487 132.744 172.167 132.641 171.749 132.641C171.308 132.641 170.959 132.737 170.7 132.93C170.445 133.122 170.273 133.349 170.183 133.611L168.503 133.372C168.635 132.908 168.854 132.52 169.159 132.209C169.464 131.894 169.837 131.659 170.278 131.503C170.719 131.344 171.206 131.264 171.739 131.264C172.107 131.264 172.473 131.307 172.838 131.393C173.203 131.48 173.536 131.622 173.837 131.821C174.139 132.017 174.381 132.283 174.563 132.621C174.749 132.96 174.842 133.382 174.842 133.889V139H173.112V137.951H173.052C172.942 138.163 172.788 138.362 172.589 138.548C172.394 138.73 172.147 138.877 171.849 138.99C171.554 139.099 171.207 139.154 170.81 139.154ZM171.277 137.832C171.638 137.832 171.951 137.76 172.217 137.618C172.482 137.472 172.686 137.28 172.828 137.041C172.974 136.803 173.047 136.542 173.047 136.261V135.361C172.991 135.407 172.894 135.45 172.759 135.49C172.626 135.53 172.477 135.565 172.311 135.594C172.145 135.624 171.981 135.651 171.819 135.674C171.656 135.697 171.516 135.717 171.396 135.734C171.128 135.77 170.888 135.83 170.675 135.913C170.463 135.996 170.296 136.112 170.173 136.261C170.051 136.406 169.989 136.595 169.989 136.827C169.989 137.159 170.11 137.409 170.352 137.578C170.594 137.747 170.902 137.832 171.277 137.832ZM180.464 131.364V132.756H176.075V131.364H180.464ZM177.158 129.534H178.958V136.703C178.958 136.945 178.995 137.131 179.067 137.26C179.144 137.386 179.243 137.472 179.366 137.518C179.488 137.565 179.624 137.588 179.773 137.588C179.886 137.588 179.989 137.58 180.082 137.563C180.178 137.547 180.251 137.532 180.3 137.518L180.604 138.925C180.508 138.959 180.37 138.995 180.191 139.035C180.015 139.075 179.8 139.098 179.545 139.104C179.094 139.118 178.688 139.05 178.327 138.901C177.965 138.748 177.679 138.513 177.467 138.195C177.258 137.876 177.155 137.479 177.158 137.001V129.534ZM183.933 134.526V139H182.134V128.818H183.894V132.661H183.983C184.162 132.23 184.439 131.891 184.813 131.642C185.191 131.39 185.672 131.264 186.255 131.264C186.785 131.264 187.248 131.375 187.642 131.597C188.037 131.819 188.342 132.144 188.557 132.572C188.776 132.999 188.885 133.521 188.885 134.138V139H187.085V134.416C187.085 133.902 186.953 133.503 186.688 133.218C186.426 132.93 186.058 132.786 185.584 132.786C185.266 132.786 184.981 132.855 184.729 132.994C184.48 133.13 184.285 133.327 184.142 133.586C184.003 133.844 183.933 134.158 183.933 134.526Z" fill="black"/>
<path d="M157.159 148.273H158.08L161.246 155.875H161.322L164.489 148.273H165.409V157H164.659V149.956H164.591L161.646 157H160.922L157.977 149.956H157.909V157H157.159V148.273ZM169.4 157.149C169.005 157.149 168.644 157.072 168.317 156.919C167.991 156.763 167.731 156.538 167.538 156.246C167.344 155.95 167.248 155.592 167.248 155.172C167.248 154.848 167.309 154.575 167.431 154.354C167.553 154.132 167.727 153.95 167.951 153.808C168.175 153.666 168.441 153.554 168.748 153.472C169.055 153.389 169.393 153.325 169.762 153.28C170.129 153.234 170.438 153.195 170.691 153.161C170.947 153.126 171.141 153.072 171.275 152.999C171.408 152.925 171.475 152.805 171.475 152.641V152.487C171.475 152.041 171.342 151.69 171.075 151.435C170.81 151.176 170.43 151.047 169.933 151.047C169.461 151.047 169.076 151.151 168.778 151.358C168.482 151.565 168.275 151.81 168.156 152.091L167.435 151.831C167.583 151.473 167.788 151.187 168.049 150.974C168.31 150.759 168.603 150.604 168.927 150.51C169.251 150.413 169.579 150.365 169.911 150.365C170.161 150.365 170.421 150.398 170.691 150.463C170.964 150.528 171.217 150.642 171.45 150.804C171.683 150.963 171.871 151.186 172.016 151.473C172.161 151.757 172.234 152.118 172.234 152.555V157H171.475V155.964H171.428C171.337 156.158 171.202 156.345 171.023 156.527C170.844 156.709 170.62 156.858 170.35 156.974C170.08 157.091 169.763 157.149 169.4 157.149ZM169.502 156.455C169.906 156.455 170.255 156.365 170.55 156.186C170.846 156.007 171.073 155.77 171.232 155.474C171.394 155.176 171.475 154.848 171.475 154.49V153.544C171.418 153.598 171.323 153.646 171.19 153.689C171.059 153.732 170.907 153.77 170.734 153.804C170.563 153.835 170.393 153.862 170.222 153.885C170.052 153.908 169.898 153.928 169.762 153.945C169.393 153.99 169.077 154.061 168.816 154.158C168.555 154.254 168.354 154.388 168.215 154.558C168.076 154.726 168.006 154.942 168.006 155.206C168.006 155.604 168.148 155.912 168.433 156.131C168.717 156.347 169.073 156.455 169.502 156.455ZM176.83 150.455V151.115H173.706V150.455H176.83ZM174.682 148.886H175.445V155.291C175.445 155.564 175.491 155.778 175.585 155.935C175.679 156.088 175.801 156.197 175.952 156.263C176.102 156.325 176.263 156.357 176.433 156.357C176.533 156.357 176.618 156.351 176.689 156.339C176.76 156.325 176.822 156.311 176.876 156.297L177.038 156.983C176.964 157.011 176.874 157.037 176.766 157.06C176.658 157.085 176.524 157.098 176.365 157.098C176.087 157.098 175.818 157.037 175.56 156.915C175.304 156.793 175.094 156.611 174.929 156.369C174.764 156.128 174.682 155.828 174.682 155.47V148.886ZM179.451 152.909V157H178.693V148.273H179.451V151.482H179.52C179.673 151.143 179.91 150.874 180.231 150.672C180.555 150.47 180.964 150.369 181.458 150.369C181.902 150.369 182.291 150.46 182.626 150.642C182.961 150.824 183.223 151.092 183.41 151.447C183.598 151.803 183.691 152.24 183.691 152.76V157H182.929V152.807C182.929 152.267 182.778 151.842 182.477 151.533C182.179 151.22 181.775 151.064 181.267 151.064C180.917 151.064 180.606 151.138 180.333 151.286C180.061 151.433 179.845 151.646 179.686 151.925C179.529 152.2 179.451 152.528 179.451 152.909ZM191.778 157H189.222V148.273H191.932C192.764 148.273 193.476 148.446 194.067 148.793C194.661 149.139 195.115 149.636 195.43 150.284C195.746 150.932 195.903 151.709 195.903 152.615C195.903 153.53 195.741 154.315 195.418 154.972C195.097 155.625 194.628 156.126 194.011 156.476C193.398 156.825 192.653 157 191.778 157ZM190.018 156.284H191.732C192.482 156.284 193.109 156.136 193.615 155.841C194.121 155.545 194.5 155.124 194.753 154.575C195.006 154.027 195.132 153.374 195.132 152.615C195.129 151.862 195.004 151.214 194.757 150.672C194.513 150.129 194.149 149.713 193.666 149.423C193.186 149.134 192.592 148.989 191.885 148.989H190.018V156.284ZM200.324 157.136C199.713 157.136 199.184 156.994 198.738 156.71C198.292 156.423 197.947 156.027 197.703 155.521C197.461 155.013 197.341 154.428 197.341 153.766C197.341 153.107 197.461 152.521 197.703 152.01C197.947 151.496 198.284 151.094 198.713 150.804C199.145 150.511 199.643 150.365 200.208 150.365C200.564 150.365 200.906 150.43 201.235 150.561C201.565 150.689 201.86 150.886 202.122 151.153C202.386 151.418 202.595 151.751 202.748 152.155C202.902 152.555 202.978 153.03 202.978 153.578V153.953H197.865V153.284H202.203C202.203 152.864 202.118 152.486 201.947 152.151C201.779 151.812 201.545 151.545 201.244 151.349C200.946 151.153 200.6 151.055 200.208 151.055C199.794 151.055 199.429 151.166 199.113 151.388C198.798 151.609 198.551 151.902 198.372 152.266C198.196 152.629 198.106 153.027 198.103 153.459V153.859C198.103 154.379 198.193 154.834 198.372 155.223C198.554 155.609 198.811 155.909 199.143 156.122C199.475 156.335 199.869 156.442 200.324 156.442C200.633 156.442 200.904 156.393 201.137 156.297C201.373 156.2 201.571 156.071 201.73 155.909C201.892 155.744 202.014 155.564 202.096 155.368L202.816 155.602C202.717 155.878 202.554 156.132 202.326 156.365C202.102 156.598 201.821 156.786 201.483 156.928C201.147 157.067 200.761 157.136 200.324 157.136ZM209.048 151.891L208.353 152.087C208.285 151.891 208.188 151.713 208.063 151.554C207.938 151.395 207.775 151.268 207.573 151.175C207.374 151.081 207.127 151.034 206.832 151.034C206.388 151.034 206.025 151.139 205.741 151.349C205.457 151.56 205.315 151.831 205.315 152.163C205.315 152.445 205.411 152.673 205.604 152.849C205.8 153.023 206.102 153.161 206.508 153.263L207.496 153.506C208.045 153.639 208.455 153.851 208.728 154.141C209.004 154.43 209.141 154.794 209.141 155.232C209.141 155.601 209.039 155.929 208.835 156.216C208.63 156.503 208.344 156.729 207.978 156.893C207.614 157.055 207.192 157.136 206.712 157.136C206.073 157.136 205.546 156.993 205.131 156.706C204.717 156.416 204.451 155.999 204.335 155.453L205.063 155.274C205.157 155.663 205.34 155.957 205.613 156.156C205.888 156.355 206.251 156.455 206.7 156.455C207.202 156.455 207.604 156.342 207.906 156.118C208.207 155.891 208.357 155.607 208.357 155.266C208.357 155.001 208.269 154.78 208.093 154.601C207.917 154.419 207.65 154.286 207.292 154.2L206.222 153.945C205.654 153.808 205.234 153.592 204.961 153.297C204.688 153.001 204.552 152.635 204.552 152.197C204.552 151.837 204.65 151.52 204.846 151.247C205.042 150.972 205.312 150.756 205.656 150.599C205.999 150.443 206.391 150.365 206.832 150.365C207.431 150.365 207.91 150.501 208.268 150.774C208.629 151.044 208.888 151.416 209.048 151.891ZM213.359 157.136C212.774 157.136 212.264 156.99 211.829 156.697C211.397 156.405 211.062 156.004 210.824 155.496C210.585 154.987 210.466 154.408 210.466 153.757C210.466 153.101 210.586 152.517 210.828 152.006C211.072 151.494 211.41 151.094 211.842 150.804C212.274 150.511 212.775 150.365 213.346 150.365C213.784 150.365 214.18 150.45 214.535 150.621C214.89 150.788 215.183 151.026 215.413 151.332C215.646 151.636 215.792 151.991 215.852 152.398H215.085C215.005 152.028 214.814 151.713 214.51 151.452C214.208 151.187 213.825 151.055 213.359 151.055C212.941 151.055 212.572 151.169 212.251 151.396C211.93 151.621 211.679 151.935 211.497 152.338C211.318 152.739 211.228 153.203 211.228 153.732C211.228 154.263 211.316 154.733 211.493 155.142C211.669 155.548 211.916 155.866 212.234 156.097C212.555 156.327 212.93 156.442 213.359 156.442C213.649 156.442 213.913 156.388 214.152 156.28C214.393 156.169 214.595 156.013 214.757 155.811C214.922 155.609 215.032 155.369 215.089 155.091H215.856C215.799 155.486 215.659 155.838 215.434 156.148C215.213 156.455 214.924 156.696 214.569 156.872C214.217 157.048 213.814 157.136 213.359 157.136ZM217.482 157V150.455H218.219V151.46H218.275C218.405 151.131 218.632 150.865 218.956 150.663C219.283 150.459 219.652 150.357 220.064 150.357C220.127 150.357 220.196 150.358 220.273 150.361C220.35 150.364 220.414 150.366 220.465 150.369V151.141C220.431 151.135 220.371 151.126 220.286 151.115C220.201 151.104 220.108 151.098 220.009 151.098C219.668 151.098 219.364 151.17 219.097 151.315C218.833 151.457 218.624 151.655 218.471 151.908C218.317 152.161 218.24 152.449 218.24 152.773V157H217.482ZM224.206 157.136C223.596 157.136 223.067 156.994 222.621 156.71C222.175 156.423 221.83 156.027 221.586 155.521C221.344 155.013 221.223 154.428 221.223 153.766C221.223 153.107 221.344 152.521 221.586 152.01C221.83 151.496 222.167 151.094 222.596 150.804C223.027 150.511 223.526 150.365 224.091 150.365C224.446 150.365 224.789 150.43 225.118 150.561C225.448 150.689 225.743 150.886 226.005 151.153C226.269 151.418 226.478 151.751 226.631 152.155C226.784 152.555 226.861 153.03 226.861 153.578V153.953H221.748V153.284H226.086C226.086 152.864 226 152.486 225.83 152.151C225.662 151.812 225.428 151.545 225.127 151.349C224.828 151.153 224.483 151.055 224.091 151.055C223.676 151.055 223.311 151.166 222.996 151.388C222.681 151.609 222.434 151.902 222.255 152.266C222.078 152.629 221.989 153.027 221.986 153.459V153.859C221.986 154.379 222.076 154.834 222.255 155.223C222.436 155.609 222.694 155.909 223.026 156.122C223.358 156.335 223.752 156.442 224.206 156.442C224.516 156.442 224.787 156.393 225.02 156.297C225.256 156.2 225.453 156.071 225.613 155.909C225.775 155.744 225.897 155.564 225.979 155.368L226.699 155.602C226.6 155.878 226.436 156.132 226.209 156.365C225.985 156.598 225.703 156.786 225.365 156.928C225.03 157.067 224.644 157.136 224.206 157.136ZM231.111 150.455V151.115H227.987V150.455H231.111ZM228.963 148.886H229.726V155.291C229.726 155.564 229.773 155.778 229.866 155.935C229.96 156.088 230.082 156.197 230.233 156.263C230.384 156.325 230.544 156.357 230.714 156.357C230.814 156.357 230.899 156.351 230.97 156.339C231.041 156.325 231.104 156.311 231.158 156.297L231.32 156.983C231.246 157.011 231.155 157.037 231.047 157.06C230.939 157.085 230.805 157.098 230.646 157.098C230.368 157.098 230.099 157.037 229.841 156.915C229.585 156.793 229.375 156.611 229.21 156.369C229.045 156.128 228.963 155.828 228.963 155.47V148.886ZM235.409 157.136C234.799 157.136 234.27 156.994 233.824 156.71C233.378 156.423 233.033 156.027 232.789 155.521C232.547 155.013 232.426 154.428 232.426 153.766C232.426 153.107 232.547 152.521 232.789 152.01C233.033 151.496 233.37 151.094 233.799 150.804C234.23 150.511 234.729 150.365 235.294 150.365C235.65 150.365 235.992 150.43 236.321 150.561C236.651 150.689 236.946 150.886 237.208 151.153C237.472 151.418 237.681 151.751 237.834 152.155C237.988 152.555 238.064 153.03 238.064 153.578V153.953H232.951V153.284H237.289C237.289 152.864 237.203 152.486 237.033 152.151C236.865 151.812 236.631 151.545 236.33 151.349C236.032 151.153 235.686 151.055 235.294 151.055C234.88 151.055 234.515 151.166 234.199 151.388C233.884 151.609 233.637 151.902 233.458 152.266C233.282 152.629 233.192 153.027 233.189 153.459V153.859C233.189 154.379 233.279 154.834 233.458 155.223C233.64 155.609 233.897 155.909 234.229 156.122C234.561 156.335 234.955 156.442 235.409 156.442C235.719 156.442 235.99 156.393 236.223 156.297C236.459 156.2 236.657 156.071 236.816 155.909C236.978 155.744 237.1 155.564 237.182 155.368L237.902 155.602C237.803 155.878 237.64 156.132 237.412 156.365C237.188 156.598 236.907 156.786 236.569 156.928C236.233 157.067 235.847 157.136 235.409 157.136Z" fill="black"/>
<rect x="98" y="125" width="45" height="45" rx="22.5" fill="#9227F9"/>
<path d="M120.697 138V157.392M119.56 138.601L111.24 150.804C111.131 150.963 111.057 151.144 111.022 151.335C110.988 151.525 110.994 151.721 111.04 151.908C111.086 152.096 111.171 152.272 111.29 152.425C111.409 152.578 111.559 152.704 111.73 152.795L120.048 157.23C120.247 157.337 120.469 157.392 120.695 157.392C120.921 157.392 121.144 157.337 121.343 157.23L129.663 152.793C129.833 152.702 129.983 152.576 130.102 152.423C130.221 152.271 130.306 152.095 130.352 151.907C130.399 151.719 130.405 151.523 130.37 151.333C130.336 151.143 130.261 150.962 130.152 150.802L121.834 138.601C121.708 138.416 121.538 138.264 121.34 138.159C121.142 138.055 120.921 138 120.697 138C120.473 138 120.252 138.055 120.054 138.159C119.856 138.264 119.686 138.416 119.56 138.601Z" stroke="white" stroke-width="2" stroke-linecap="round" stroke-linejoin="round"/>
<line x1="20.5" y1="2.5" x2="20.5" y2="190.5" stroke="white" stroke-width="3" stroke-linecap="round"/>
<rect x="19" width="3" height="101" rx="1.5" fill="#9227F9"/>
<circle cx="20" cy="51" r="20" fill="#9227F9"/>
<circle cx="20" cy="147" r="20" fill="white"/>
<path d="M28 45L17.5 58.5L11 51.5" stroke="white" stroke-width="2" stroke-linecap="round" stroke-linejoin="round"/>
</svg>
