<svg width="496" height="334" viewBox="0 0 496 334" fill="none" xmlns="http://www.w3.org/2000/svg">
<mask id="mask0_536_276" style="mask-type:alpha" maskUnits="userSpaceOnUse" x="15" y="28" width="437" height="283">
<rect x="15" y="28" width="437" height="283" fill="#D9D9D9"/>
</mask>
<g mask="url(#mask0_536_276)">
<rect x="72" y="30" width="6" height="278" rx="3" fill="black" fill-opacity="0.12"/>
<rect x="149" y="29" width="6" height="279" rx="3" fill="black" fill-opacity="0.12"/>
<rect x="285" y="29" width="6" height="279" rx="3" fill="black" fill-opacity="0.12"/>
<rect x="285" y="29" width="6" height="41" rx="3" fill="#9227F9"/>
<path d="M14.4998 32.5C10.6664 128 96.9998 314.8 473 298" stroke="#9227F9" stroke-width="6"/>
<path d="M75 33.5C103.202 97.8065 222.085 224.124 472 220.942" stroke="#9227F9" stroke-width="6"/>
<rect x="72" y="30" width="6" height="157" rx="3" fill="#9227F9"/>
<rect x="149" y="28" width="6" height="100" rx="3" fill="#9227F9"/>
<path d="M151.5 31C191 48.6667 311.9 84.5 475.5 80.5" stroke="#9227F9" stroke-width="6"/>
<path d="M289 32L459 37" stroke="#9227F9" stroke-width="6"/>
<path d="M14.0002 305C13.8336 231.667 105.7 74.8 474.5 34" stroke="#633BF3" stroke-width="6"/>
<mask id="mask1_536_276" style="mask-type:alpha" maskUnits="userSpaceOnUse" x="16" y="35" width="635" height="388">
<path d="M471.5 41.4999C131.463 78.407 40.847 193.289 19.9537 283.722C19.2893 286.598 19.2953 289.553 19.8683 292.448L34.7879 367.831C36.6903 377.444 44.7209 384.639 54.4837 385.479L445.878 419.147C452.586 419.725 459.133 417.27 463.714 412.335C600.07 265.428 794.32 6.46151 471.5 41.4999Z" fill="#D9D9D9" stroke="#9227F9" stroke-width="6"/>
</mask>
<g mask="url(#mask1_536_276)">
<rect x="72" y="30" width="6" height="278" rx="3" fill="black" fill-opacity="0.12"/>
<rect x="149" y="29" width="6" height="279" rx="3" fill="black" fill-opacity="0.12"/>
<rect x="285" y="29" width="6" height="279" rx="3" fill="black" fill-opacity="0.12"/>
<rect x="285" y="29" width="6" height="41" rx="3" fill="#9227F9"/>
<path d="M14.4998 32.5C10.6664 128 96.9998 314.8 473 298" stroke="white" stroke-width="6"/>
<path d="M14.4998 32.5C10.6664 128 96.9998 314.8 473 298" stroke="black" stroke-opacity="0.58" stroke-width="6" stroke-dasharray="12 12"/>
<path d="M75 33.5C103.202 97.8065 222.085 224.124 472 220.942" stroke="white" stroke-width="6"/>
<path d="M75 33.5C103.202 97.8065 222.085 224.124 472 220.942" stroke="black" stroke-opacity="0.58" stroke-width="6" stroke-dasharray="12 12"/>
<rect x="72" y="30" width="6" height="157" rx="3" fill="#9227F9"/>
<rect x="149" y="28" width="6" height="100" rx="3" fill="#9227F9"/>
<path d="M151.5 31C191 48.6667 311.9 84.5 475.5 80.5" stroke="white" stroke-width="6"/>
<path d="M151.5 31C191 48.6667 311.9 84.5 475.5 80.5" stroke="black" stroke-opacity="0.58" stroke-width="6" stroke-dasharray="12 12"/>
<path d="M289 32L459 37" stroke="#9227F9" stroke-width="6"/>
<path d="M14.0002 305C13.8336 231.667 105.7 74.8 474.5 34" stroke="#633BF3" stroke-width="6"/>
</g>
</g>
<path d="M495.061 308.061C495.646 307.475 495.646 306.525 495.061 305.939L485.515 296.393C484.929 295.808 483.979 295.808 483.393 296.393C482.808 296.979 482.808 297.929 483.393 298.515L491.879 307L483.393 315.485C482.808 316.071 482.808 317.021 483.393 317.607C483.979 318.192 484.929 318.192 485.515 317.607L495.061 308.061ZM14 308.5L494 308.5V305.5L14 305.5V308.5Z" fill="black"/>
<path d="M17.0808 0.9429C16.497 0.35517 15.5473 0.352015 14.9595 0.935852L5.38193 10.45C4.7942 11.0339 4.79105 11.9836 5.37488 12.5713C5.95872 13.1591 6.90846 13.1622 7.49619 12.5784L16.0096 4.12134L24.4667 12.6348C25.0505 13.2225 26.0002 13.2257 26.588 12.6418C27.1757 12.058 27.1789 11.1082 26.595 10.5205L17.0808 0.9429ZM16.5 308.005L17.5167 2.00501L14.5167 1.99505L13.5 307.995L16.5 308.005Z" fill="black"/>
<path d="M5.73864 318.364H7.82955V326.545C7.82576 327.295 7.66667 327.941 7.35227 328.483C7.03788 329.021 6.59848 329.436 6.03409 329.727C5.47348 330.015 4.82008 330.159 4.07386 330.159C3.39205 330.159 2.77841 330.038 2.23295 329.795C1.69129 329.549 1.26136 329.186 0.943182 328.705C0.625 328.223 0.465909 327.625 0.465909 326.909H2.5625C2.56629 327.223 2.63447 327.494 2.76705 327.722C2.90341 327.949 3.09091 328.123 3.32955 328.244C3.56818 328.366 3.8428 328.426 4.15341 328.426C4.49053 328.426 4.77652 328.356 5.01136 328.216C5.24621 328.072 5.42424 327.86 5.54545 327.58C5.67045 327.299 5.73485 326.955 5.73864 326.545V318.364ZM13.4574 328.136V320.273H15.2415V328.136H13.4574ZM10.4176 325.097V323.312H18.2812V325.097H10.4176ZM25.0696 330.222C24.134 330.222 23.331 329.985 22.6605 329.511C21.9938 329.034 21.4806 328.347 21.1207 327.449C20.7647 326.547 20.5866 325.462 20.5866 324.193C20.5904 322.924 20.7704 321.845 21.1264 320.955C21.4863 320.061 21.9995 319.379 22.6662 318.909C23.3366 318.439 24.1378 318.205 25.0696 318.205C26.0014 318.205 26.8026 318.439 27.473 318.909C28.1435 319.379 28.6567 320.061 29.0128 320.955C29.3726 321.848 29.5526 322.928 29.5526 324.193C29.5526 325.466 29.3726 326.553 29.0128 327.455C28.6567 328.352 28.1435 329.038 27.473 329.511C26.8063 329.985 26.0052 330.222 25.0696 330.222ZM25.0696 328.443C25.7969 328.443 26.3707 328.085 26.7912 327.369C27.2154 326.65 27.4276 325.591 27.4276 324.193C27.4276 323.269 27.331 322.492 27.1378 321.864C26.9446 321.235 26.6719 320.761 26.3196 320.443C25.9673 320.121 25.5507 319.96 25.0696 319.96C24.3461 319.96 23.7741 320.32 23.3537 321.04C22.9332 321.756 22.7211 322.807 22.7173 324.193C22.7135 325.121 22.8063 325.902 22.9957 326.534C23.1889 327.167 23.4616 327.644 23.8139 327.966C24.1662 328.284 24.5848 328.443 25.0696 328.443Z" fill="black"/>
<path d="M273.739 318.364H275.83V326.545C275.826 327.295 275.667 327.941 275.352 328.483C275.038 329.021 274.598 329.436 274.034 329.727C273.473 330.015 272.82 330.159 272.074 330.159C271.392 330.159 270.778 330.038 270.233 329.795C269.691 329.549 269.261 329.186 268.943 328.705C268.625 328.223 268.466 327.625 268.466 326.909H270.562C270.566 327.223 270.634 327.494 270.767 327.722C270.903 327.949 271.091 328.123 271.33 328.244C271.568 328.366 271.843 328.426 272.153 328.426C272.491 328.426 272.777 328.356 273.011 328.216C273.246 328.072 273.424 327.86 273.545 327.58C273.67 327.299 273.735 326.955 273.739 326.545V318.364ZM281.457 328.136V320.273H283.241V328.136H281.457ZM278.418 325.097V323.312H286.281V325.097H278.418ZM292.835 330.159C292.017 330.159 291.29 330.019 290.653 329.739C290.021 329.458 289.521 329.068 289.153 328.568C288.786 328.068 288.591 327.491 288.568 326.835H290.705C290.723 327.15 290.828 327.424 291.017 327.659C291.206 327.89 291.458 328.07 291.773 328.199C292.087 328.328 292.439 328.392 292.83 328.392C293.246 328.392 293.616 328.32 293.938 328.176C294.259 328.028 294.511 327.824 294.693 327.562C294.875 327.301 294.964 327 294.96 326.659C294.964 326.307 294.873 325.996 294.688 325.727C294.502 325.458 294.233 325.248 293.881 325.097C293.532 324.945 293.112 324.869 292.619 324.869H291.591V323.244H292.619C293.025 323.244 293.379 323.174 293.682 323.034C293.989 322.894 294.229 322.697 294.403 322.443C294.578 322.186 294.663 321.888 294.659 321.551C294.663 321.222 294.589 320.936 294.438 320.693C294.29 320.447 294.08 320.256 293.807 320.119C293.538 319.983 293.222 319.915 292.858 319.915C292.502 319.915 292.172 319.979 291.869 320.108C291.566 320.237 291.322 320.42 291.136 320.659C290.951 320.894 290.852 321.174 290.841 321.5H288.812C288.828 320.848 289.015 320.277 289.375 319.784C289.739 319.288 290.223 318.902 290.83 318.625C291.436 318.345 292.116 318.205 292.869 318.205C293.646 318.205 294.32 318.35 294.892 318.642C295.468 318.93 295.913 319.318 296.227 319.807C296.542 320.295 296.699 320.835 296.699 321.426C296.703 322.081 296.509 322.631 296.119 323.074C295.733 323.517 295.225 323.807 294.597 323.943V324.034C295.415 324.148 296.042 324.451 296.477 324.943C296.917 325.432 297.134 326.04 297.131 326.767C297.131 327.419 296.945 328.002 296.574 328.517C296.206 329.028 295.699 329.43 295.051 329.722C294.407 330.013 293.669 330.159 292.835 330.159ZM303.382 330.222C302.446 330.222 301.643 329.985 300.973 329.511C300.306 329.034 299.793 328.347 299.433 327.449C299.077 326.547 298.899 325.462 298.899 324.193C298.903 322.924 299.083 321.845 299.439 320.955C299.799 320.061 300.312 319.379 300.979 318.909C301.649 318.439 302.45 318.205 303.382 318.205C304.314 318.205 305.115 318.439 305.786 318.909C306.456 319.379 306.969 320.061 307.325 320.955C307.685 321.848 307.865 322.928 307.865 324.193C307.865 325.466 307.685 326.553 307.325 327.455C306.969 328.352 306.456 329.038 305.786 329.511C305.119 329.985 304.318 330.222 303.382 330.222ZM303.382 328.443C304.109 328.443 304.683 328.085 305.104 327.369C305.528 326.65 305.74 325.591 305.74 324.193C305.74 323.269 305.643 322.492 305.45 321.864C305.257 321.235 304.984 320.761 304.632 320.443C304.28 320.121 303.863 319.96 303.382 319.96C302.659 319.96 302.087 320.32 301.666 321.04C301.246 321.756 301.034 322.807 301.03 324.193C301.026 325.121 301.119 325.902 301.308 326.534C301.501 327.167 301.774 327.644 302.126 327.966C302.479 328.284 302.897 328.443 303.382 328.443Z" fill="black"/>
<path d="M140.739 318.364H142.83V326.545C142.826 327.295 142.667 327.941 142.352 328.483C142.038 329.021 141.598 329.436 141.034 329.727C140.473 330.015 139.82 330.159 139.074 330.159C138.392 330.159 137.778 330.038 137.233 329.795C136.691 329.549 136.261 329.186 135.943 328.705C135.625 328.223 135.466 327.625 135.466 326.909H137.562C137.566 327.223 137.634 327.494 137.767 327.722C137.903 327.949 138.091 328.123 138.33 328.244C138.568 328.366 138.843 328.426 139.153 328.426C139.491 328.426 139.777 328.356 140.011 328.216C140.246 328.072 140.424 327.86 140.545 327.58C140.67 327.299 140.735 326.955 140.739 326.545V318.364ZM148.457 328.136V320.273H150.241V328.136H148.457ZM145.418 325.097V323.312H153.281V325.097H145.418ZM160.501 318.364V330H158.393V320.415H158.325L155.604 322.153V320.222L158.496 318.364H160.501ZM167.757 330.222C166.821 330.222 166.018 329.985 165.348 329.511C164.681 329.034 164.168 328.347 163.808 327.449C163.452 326.547 163.274 325.462 163.274 324.193C163.278 322.924 163.458 321.845 163.814 320.955C164.174 320.061 164.687 319.379 165.354 318.909C166.024 318.439 166.825 318.205 167.757 318.205C168.689 318.205 169.49 318.439 170.161 318.909C170.831 319.379 171.344 320.061 171.7 320.955C172.06 321.848 172.24 322.928 172.24 324.193C172.24 325.466 172.06 326.553 171.7 327.455C171.344 328.352 170.831 329.038 170.161 329.511C169.494 329.985 168.693 330.222 167.757 330.222ZM167.757 328.443C168.484 328.443 169.058 328.085 169.479 327.369C169.903 326.65 170.115 325.591 170.115 324.193C170.115 323.269 170.018 322.492 169.825 321.864C169.632 321.235 169.359 320.761 169.007 320.443C168.655 320.121 168.238 319.96 167.757 319.96C167.034 319.96 166.462 320.32 166.041 321.04C165.621 321.756 165.409 322.807 165.405 324.193C165.401 325.121 165.494 325.902 165.683 326.534C165.876 327.167 166.149 327.644 166.501 327.966C166.854 328.284 167.272 328.443 167.757 328.443Z" fill="black"/>
<path d="M65.7386 318.364H67.8295V326.545C67.8258 327.295 67.6667 327.941 67.3523 328.483C67.0379 329.021 66.5985 329.436 66.0341 329.727C65.4735 330.015 64.8201 330.159 64.0739 330.159C63.392 330.159 62.7784 330.038 62.233 329.795C61.6913 329.549 61.2614 329.186 60.9432 328.705C60.625 328.223 60.4659 327.625 60.4659 326.909H62.5625C62.5663 327.223 62.6345 327.494 62.767 327.722C62.9034 327.949 63.0909 328.123 63.3295 328.244C63.5682 328.366 63.8428 328.426 64.1534 328.426C64.4905 328.426 64.7765 328.356 65.0114 328.216C65.2462 328.072 65.4242 327.86 65.5455 327.58C65.6705 327.299 65.7348 326.955 65.7386 326.545V318.364ZM73.4574 328.136V320.273H75.2415V328.136H73.4574ZM70.4176 325.097V323.312H78.2812V325.097H70.4176ZM84.8352 330.159C84.017 330.159 83.2898 330.019 82.6534 329.739C82.0208 329.458 81.5208 329.068 81.1534 328.568C80.786 328.068 80.5909 327.491 80.5682 326.835H82.7045C82.7235 327.15 82.8277 327.424 83.017 327.659C83.2064 327.89 83.4583 328.07 83.7727 328.199C84.0871 328.328 84.4394 328.392 84.8295 328.392C85.2462 328.392 85.6155 328.32 85.9375 328.176C86.2595 328.028 86.5114 327.824 86.6932 327.562C86.875 327.301 86.964 327 86.9602 326.659C86.964 326.307 86.8731 325.996 86.6875 325.727C86.5019 325.458 86.233 325.248 85.8807 325.097C85.5322 324.945 85.1117 324.869 84.6193 324.869H83.5909V323.244H84.6193C85.0246 323.244 85.3788 323.174 85.6818 323.034C85.9886 322.894 86.2292 322.697 86.4034 322.443C86.5777 322.186 86.6629 321.888 86.6591 321.551C86.6629 321.222 86.589 320.936 86.4375 320.693C86.2898 320.447 86.0795 320.256 85.8068 320.119C85.5379 319.983 85.2216 319.915 84.858 319.915C84.5019 319.915 84.1723 319.979 83.8693 320.108C83.5663 320.237 83.322 320.42 83.1364 320.659C82.9508 320.894 82.8523 321.174 82.8409 321.5H80.8125C80.8277 320.848 81.0152 320.277 81.375 319.784C81.7386 319.288 82.2235 318.902 82.8295 318.625C83.4356 318.345 84.1155 318.205 84.8693 318.205C85.6458 318.205 86.3201 318.35 86.892 318.642C87.4678 318.93 87.9129 319.318 88.2273 319.807C88.5417 320.295 88.6989 320.835 88.6989 321.426C88.7027 322.081 88.5095 322.631 88.1193 323.074C87.733 323.517 87.2254 323.807 86.5966 323.943V324.034C87.4148 324.148 88.0417 324.451 88.4773 324.943C88.9167 325.432 89.1345 326.04 89.1307 326.767C89.1307 327.419 88.9451 328.002 88.5739 328.517C88.2064 329.028 87.6989 329.43 87.0511 329.722C86.4072 330.013 85.6686 330.159 84.8352 330.159Z" fill="black"/>
</svg>
