<svg width="356" height="381" viewBox="0 0 356 381" fill="none" xmlns="http://www.w3.org/2000/svg">
<mask id="mask0_540_425" style="mask-type:alpha" maskUnits="userSpaceOnUse" x="2" y="169" width="346" height="212">
<rect x="2" y="169" width="346" height="212" fill="#D9D9D9"/>
</mask>
<g mask="url(#mask0_540_425)">
<rect x="85" y="183" width="260" height="83" rx="25" fill="white"/>
<line x1="107" y1="201" x2="107" y2="249" stroke="#9227F9" stroke-width="2" stroke-linecap="round"/>
<path d="M182.719 212.254H180.86C180.807 211.949 180.709 211.679 180.567 211.443C180.424 211.205 180.247 211.002 180.035 210.837C179.823 210.671 179.581 210.547 179.309 210.464C179.04 210.378 178.75 210.335 178.439 210.335C177.885 210.335 177.395 210.474 176.967 210.752C176.54 211.027 176.205 211.432 175.963 211.965C175.721 212.496 175.6 213.143 175.6 213.909C175.6 214.688 175.721 215.344 175.963 215.878C176.208 216.408 176.543 216.809 176.967 217.081C177.395 217.349 177.884 217.484 178.434 217.484C178.739 217.484 179.024 217.444 179.289 217.364C179.558 217.281 179.798 217.161 180.01 217.001C180.225 216.842 180.406 216.647 180.552 216.415C180.701 216.183 180.804 215.918 180.86 215.619L182.719 215.629C182.65 216.113 182.499 216.567 182.267 216.991C182.038 217.416 181.738 217.79 181.367 218.115C180.996 218.437 180.562 218.688 180.065 218.871C179.567 219.05 179.016 219.139 178.409 219.139C177.514 219.139 176.715 218.932 176.013 218.518C175.31 218.103 174.757 217.505 174.352 216.723C173.948 215.941 173.746 215.003 173.746 213.909C173.746 212.812 173.95 211.874 174.357 211.095C174.765 210.313 175.32 209.715 176.023 209.3C176.725 208.886 177.521 208.679 178.409 208.679C178.976 208.679 179.503 208.759 179.99 208.918C180.477 209.077 180.911 209.31 181.293 209.619C181.674 209.924 181.987 210.298 182.232 210.742C182.481 211.183 182.643 211.687 182.719 212.254ZM187.66 219.149C186.914 219.149 186.268 218.985 185.721 218.657C185.174 218.329 184.75 217.87 184.448 217.28C184.15 216.69 184.001 216 184.001 215.212C184.001 214.423 184.15 213.732 184.448 213.138C184.75 212.545 185.174 212.085 185.721 211.756C186.268 211.428 186.914 211.264 187.66 211.264C188.406 211.264 189.052 211.428 189.599 211.756C190.146 212.085 190.568 212.545 190.867 213.138C191.168 213.732 191.319 214.423 191.319 215.212C191.319 216 191.168 216.69 190.867 217.28C190.568 217.87 190.146 218.329 189.599 218.657C189.052 218.985 188.406 219.149 187.66 219.149ZM187.67 217.707C188.074 217.707 188.412 217.596 188.684 217.374C188.956 217.149 189.158 216.847 189.291 216.469C189.427 216.092 189.494 215.671 189.494 215.207C189.494 214.739 189.427 214.317 189.291 213.939C189.158 213.558 188.956 213.254 188.684 213.029C188.412 212.804 188.074 212.691 187.67 212.691C187.256 212.691 186.911 212.804 186.636 213.029C186.364 213.254 186.16 213.558 186.024 213.939C185.892 214.317 185.825 214.739 185.825 215.207C185.825 215.671 185.892 216.092 186.024 216.469C186.16 216.847 186.364 217.149 186.636 217.374C186.911 217.596 187.256 217.707 187.67 217.707ZM195.68 219.134C195.08 219.134 194.544 218.98 194.07 218.672C193.596 218.364 193.221 217.916 192.946 217.33C192.671 216.743 192.533 216.03 192.533 215.192C192.533 214.343 192.673 213.627 192.951 213.044C193.233 212.457 193.612 212.015 194.089 211.717C194.567 211.415 195.099 211.264 195.685 211.264C196.133 211.264 196.501 211.34 196.789 211.493C197.077 211.642 197.306 211.823 197.475 212.035C197.644 212.244 197.775 212.441 197.868 212.626H197.942V208.818H199.747V219H197.977V217.797H197.868C197.775 217.982 197.641 218.18 197.465 218.388C197.29 218.594 197.058 218.77 196.769 218.915C196.481 219.061 196.118 219.134 195.68 219.134ZM196.183 217.658C196.564 217.658 196.888 217.555 197.157 217.349C197.425 217.141 197.629 216.851 197.768 216.479C197.908 216.108 197.977 215.676 197.977 215.182C197.977 214.688 197.908 214.259 197.768 213.894C197.633 213.53 197.43 213.246 197.162 213.044C196.897 212.842 196.57 212.741 196.183 212.741C195.781 212.741 195.447 212.845 195.178 213.054C194.91 213.263 194.708 213.551 194.572 213.919C194.436 214.287 194.368 214.708 194.368 215.182C194.368 215.659 194.436 216.085 194.572 216.46C194.711 216.831 194.915 217.124 195.183 217.339C195.455 217.552 195.788 217.658 196.183 217.658ZM205.046 219.149C204.28 219.149 203.619 218.99 203.062 218.672C202.508 218.35 202.083 217.896 201.784 217.31C201.486 216.72 201.337 216.025 201.337 215.227C201.337 214.441 201.486 213.752 201.784 213.158C202.086 212.562 202.507 212.098 203.047 211.766C203.587 211.432 204.222 211.264 204.951 211.264C205.422 211.264 205.866 211.34 206.284 211.493C206.704 211.642 207.076 211.874 207.397 212.189C207.722 212.504 207.977 212.905 208.163 213.392C208.348 213.876 208.441 214.453 208.441 215.122V215.674H202.182V214.461H206.716C206.713 214.116 206.638 213.81 206.492 213.541C206.347 213.269 206.143 213.056 205.881 212.9C205.622 212.744 205.321 212.666 204.976 212.666C204.608 212.666 204.285 212.756 204.007 212.935C203.728 213.11 203.511 213.342 203.355 213.631C203.203 213.916 203.125 214.229 203.122 214.57V215.629C203.122 216.073 203.203 216.455 203.365 216.773C203.528 217.088 203.755 217.33 204.046 217.499C204.338 217.664 204.679 217.747 205.07 217.747C205.332 217.747 205.569 217.711 205.781 217.638C205.994 217.562 206.177 217.451 206.333 217.305C206.489 217.159 206.607 216.978 206.686 216.763L208.367 216.952C208.261 217.396 208.058 217.784 207.76 218.115C207.465 218.443 207.087 218.698 206.627 218.881C206.166 219.06 205.639 219.149 205.046 219.149Z" fill="black"/>
<path d="M175.172 237H174.337L177.511 228.273H178.364L181.538 237H180.703L177.967 229.308H177.908L175.172 237ZM175.773 233.655H180.102V234.371H175.773V233.655ZM187.773 230.455C187.724 229.969 187.51 229.582 187.129 229.295C186.749 229.009 186.27 228.865 185.693 228.865C185.287 228.865 184.929 228.935 184.619 229.074C184.313 229.213 184.071 229.406 183.895 229.653C183.722 229.898 183.635 230.176 183.635 230.489C183.635 230.719 183.685 230.92 183.784 231.094C183.884 231.267 184.017 231.416 184.185 231.541C184.355 231.663 184.543 231.768 184.747 231.857C184.955 231.945 185.163 232.018 185.374 232.078L186.294 232.342C186.572 232.419 186.851 232.517 187.129 232.636C187.408 232.756 187.662 232.906 187.892 233.088C188.125 233.267 188.311 233.487 188.45 233.749C188.592 234.007 188.663 234.318 188.663 234.682C188.663 235.148 188.543 235.567 188.301 235.939C188.06 236.311 187.713 236.607 187.261 236.825C186.81 237.041 186.268 237.149 185.638 237.149C185.044 237.149 184.528 237.051 184.091 236.855C183.653 236.656 183.31 236.382 183.06 236.033C182.81 235.683 182.669 235.278 182.638 234.818H183.456C183.484 235.162 183.598 235.453 183.797 235.692C183.996 235.93 184.254 236.112 184.572 236.237C184.891 236.359 185.246 236.42 185.638 236.42C186.072 236.42 186.459 236.348 186.797 236.203C187.138 236.055 187.405 235.851 187.598 235.589C187.794 235.325 187.892 235.018 187.892 234.669C187.892 234.374 187.815 234.126 187.662 233.928C187.509 233.726 187.294 233.557 187.018 233.42C186.746 233.284 186.429 233.163 186.068 233.058L185.024 232.751C184.339 232.547 183.808 232.264 183.43 231.903C183.053 231.543 182.864 231.082 182.864 230.523C182.864 230.054 182.989 229.642 183.239 229.287C183.491 228.929 183.832 228.651 184.261 228.452C184.693 228.25 185.178 228.149 185.714 228.149C186.257 228.149 186.737 228.249 187.155 228.447C187.572 228.646 187.903 228.92 188.148 229.27C188.395 229.616 188.527 230.011 188.544 230.455H187.773ZM190.581 237V228.273H193.398C194.017 228.273 194.534 228.392 194.949 228.631C195.366 228.866 195.68 229.188 195.891 229.594C196.104 230 196.21 230.457 196.21 230.966C196.21 231.474 196.105 231.933 195.895 232.342C195.685 232.749 195.372 233.071 194.957 233.31C194.543 233.545 194.027 233.663 193.411 233.663H191.195V232.947H193.389C193.847 232.947 194.226 232.862 194.527 232.692C194.828 232.518 195.053 232.283 195.2 231.984C195.351 231.686 195.426 231.347 195.426 230.966C195.426 230.585 195.351 230.246 195.2 229.947C195.053 229.649 194.827 229.415 194.523 229.244C194.222 229.074 193.839 228.989 193.376 228.989H191.378V237H190.581ZM201.903 237.064C201.736 237.064 201.591 237.004 201.469 236.885C201.349 236.763 201.29 236.618 201.29 236.45C201.29 236.28 201.349 236.135 201.469 236.016C201.591 235.896 201.736 235.837 201.903 235.837C202.074 235.837 202.219 235.896 202.338 236.016C202.457 236.135 202.517 236.28 202.517 236.45C202.517 236.561 202.489 236.663 202.432 236.757C202.378 236.851 202.304 236.926 202.21 236.983C202.119 237.037 202.017 237.064 201.903 237.064ZM211.475 228.273V237H210.7L205.544 229.692H205.475V237H204.679V228.273H205.45L210.623 235.589H210.691V228.273H211.475ZM213.796 237V228.273H218.858V228.989H214.593V232.274H218.59V232.99H214.593V236.284H218.944V237H213.796ZM220.392 228.989V228.273H226.721V228.989H223.955V237H223.158V228.989H220.392ZM238.725 231H237.924C237.864 230.702 237.756 230.426 237.6 230.173C237.446 229.918 237.253 229.695 237.02 229.504C236.787 229.314 236.523 229.166 236.228 229.061C235.932 228.956 235.613 228.903 235.269 228.903C234.718 228.903 234.215 229.047 233.76 229.334C233.309 229.621 232.946 230.043 232.674 230.599C232.404 231.153 232.269 231.832 232.269 232.636C232.269 233.446 232.404 234.128 232.674 234.682C232.946 235.236 233.309 235.656 233.76 235.943C234.215 236.227 234.718 236.369 235.269 236.369C235.613 236.369 235.932 236.317 236.228 236.212C236.523 236.107 236.787 235.96 237.02 235.773C237.253 235.582 237.446 235.359 237.6 235.104C237.756 234.848 237.864 234.571 237.924 234.273H238.725C238.654 234.673 238.52 235.047 238.324 235.393C238.131 235.737 237.884 236.038 237.583 236.297C237.284 236.555 236.941 236.757 236.551 236.902C236.162 237.047 235.735 237.119 235.269 237.119C234.536 237.119 233.885 236.936 233.317 236.57C232.749 236.2 232.303 235.68 231.979 235.01C231.658 234.339 231.498 233.548 231.498 232.636C231.498 231.724 231.658 230.933 231.979 230.263C232.303 229.592 232.749 229.074 233.317 228.707C233.885 228.338 234.536 228.153 235.269 228.153C235.735 228.153 236.162 228.226 236.551 228.371C236.941 228.513 237.284 228.714 237.583 228.976C237.884 229.234 238.131 229.536 238.324 229.879C238.52 230.223 238.654 230.597 238.725 231ZM242.983 237.136C242.418 237.136 241.918 236.993 241.483 236.706C241.051 236.419 240.713 236.023 240.469 235.517C240.224 235.009 240.102 234.422 240.102 233.757C240.102 233.087 240.224 232.497 240.469 231.989C240.713 231.477 241.051 231.08 241.483 230.795C241.918 230.509 242.418 230.365 242.983 230.365C243.548 230.365 244.047 230.509 244.479 230.795C244.911 231.082 245.249 231.48 245.493 231.989C245.74 232.497 245.864 233.087 245.864 233.757C245.864 234.422 245.741 235.009 245.497 235.517C245.253 236.023 244.913 236.419 244.479 236.706C244.047 236.993 243.548 237.136 242.983 237.136ZM242.983 236.442C243.438 236.442 243.822 236.32 244.138 236.075C244.453 235.831 244.692 235.506 244.854 235.099C245.018 234.693 245.101 234.246 245.101 233.757C245.101 233.268 245.018 232.82 244.854 232.411C244.692 232.001 244.453 231.673 244.138 231.426C243.822 231.179 243.438 231.055 242.983 231.055C242.531 231.055 242.146 231.179 241.828 231.426C241.513 231.673 241.273 232.001 241.108 232.411C240.946 232.82 240.865 233.268 240.865 233.757C240.865 234.246 240.946 234.693 241.108 235.099C241.273 235.506 241.513 235.831 241.828 236.075C242.143 236.32 242.528 236.442 242.983 236.442ZM247.529 237V230.455H248.266V231.46H248.321C248.452 231.131 248.679 230.865 249.003 230.663C249.33 230.459 249.699 230.357 250.111 230.357C250.174 230.357 250.243 230.358 250.32 230.361C250.397 230.364 250.461 230.366 250.512 230.369V231.141C250.478 231.135 250.418 231.126 250.333 231.115C250.248 231.104 250.155 231.098 250.056 231.098C249.715 231.098 249.411 231.17 249.144 231.315C248.88 231.457 248.671 231.655 248.517 231.908C248.364 232.161 248.287 232.449 248.287 232.773V237H247.529ZM254.253 237.136C253.642 237.136 253.114 236.994 252.668 236.71C252.222 236.423 251.877 236.027 251.632 235.521C251.391 235.013 251.27 234.428 251.27 233.766C251.27 233.107 251.391 232.521 251.632 232.01C251.877 231.496 252.213 231.094 252.642 230.804C253.074 230.511 253.573 230.365 254.138 230.365C254.493 230.365 254.836 230.43 255.165 230.561C255.495 230.689 255.79 230.886 256.051 231.153C256.316 231.418 256.525 231.751 256.678 232.155C256.831 232.555 256.908 233.03 256.908 233.578V233.953H251.794V233.284H256.132C256.132 232.864 256.047 232.486 255.877 232.151C255.709 231.812 255.475 231.545 255.174 231.349C254.875 231.153 254.53 231.055 254.138 231.055C253.723 231.055 253.358 231.166 253.043 231.388C252.728 231.609 252.48 231.902 252.301 232.266C252.125 232.629 252.036 233.027 252.033 233.459V233.859C252.033 234.379 252.123 234.834 252.301 235.223C252.483 235.609 252.74 235.909 253.073 236.122C253.405 236.335 253.799 236.442 254.253 236.442C254.563 236.442 254.834 236.393 255.067 236.297C255.303 236.2 255.5 236.071 255.659 235.909C255.821 235.744 255.944 235.564 256.026 235.368L256.746 235.602C256.647 235.878 256.483 236.132 256.256 236.365C256.032 236.598 255.75 236.786 255.412 236.928C255.077 237.067 254.691 237.136 254.253 237.136Z" fill="black"/>
<rect x="117" y="202" width="45" height="45" rx="22.5" fill="#9227F9"/>
<path d="M135.562 228.5L130.312 225L135.562 221.5M143.438 228.5L148.688 225L143.438 221.5M141.469 220L137.531 230" stroke="white" stroke-width="2" stroke-linecap="round" stroke-linejoin="round"/>
<rect x="85" y="279" width="260" height="83" rx="25" fill="white"/>
<line x1="107" y1="297" x2="107" y2="345" stroke="#9227F9" stroke-width="2" stroke-linecap="round"/>
<path d="M174.004 315V304.818H177.902C178.638 304.818 179.249 304.934 179.737 305.166C180.227 305.395 180.593 305.708 180.835 306.106C181.08 306.504 181.203 306.954 181.203 307.458C181.203 307.872 181.124 308.227 180.964 308.522C180.805 308.814 180.592 309.051 180.323 309.233C180.055 309.415 179.755 309.546 179.423 309.626V309.725C179.785 309.745 180.131 309.856 180.462 310.058C180.797 310.257 181.071 310.539 181.283 310.903C181.495 311.268 181.601 311.709 181.601 312.226C181.601 312.753 181.473 313.227 181.218 313.648C180.963 314.065 180.578 314.395 180.065 314.637C179.551 314.879 178.905 315 178.126 315H174.004ZM175.849 313.459H177.832C178.502 313.459 178.984 313.331 179.279 313.076C179.577 312.817 179.727 312.486 179.727 312.082C179.727 311.78 179.652 311.508 179.503 311.266C179.354 311.021 179.142 310.829 178.866 310.69C178.591 310.547 178.263 310.476 177.882 310.476H175.849V313.459ZM175.849 309.148H177.673C177.991 309.148 178.278 309.09 178.533 308.974C178.789 308.855 178.989 308.688 179.135 308.472C179.284 308.254 179.359 307.995 179.359 307.697C179.359 307.302 179.219 306.978 178.941 306.722C178.666 306.467 178.257 306.339 177.713 306.339H175.849V309.148ZM183.126 315V307.364H184.926V315H183.126ZM184.031 306.28C183.746 306.28 183.5 306.185 183.295 305.996C183.089 305.804 182.987 305.574 182.987 305.305C182.987 305.034 183.089 304.803 183.295 304.614C183.5 304.422 183.746 304.326 184.031 304.326C184.319 304.326 184.564 304.422 184.767 304.614C184.972 304.803 185.075 305.034 185.075 305.305C185.075 305.574 184.972 305.804 184.767 305.996C184.564 306.185 184.319 306.28 184.031 306.28ZM190.107 315.149C189.362 315.149 188.715 314.985 188.168 314.657C187.621 314.329 187.197 313.87 186.896 313.28C186.597 312.69 186.448 312 186.448 311.212C186.448 310.423 186.597 309.732 186.896 309.138C187.197 308.545 187.621 308.085 188.168 307.756C188.715 307.428 189.362 307.264 190.107 307.264C190.853 307.264 191.499 307.428 192.046 307.756C192.593 308.085 193.016 308.545 193.314 309.138C193.616 309.732 193.766 310.423 193.766 311.212C193.766 312 193.616 312.69 193.314 313.28C193.016 313.87 192.593 314.329 192.046 314.657C191.499 314.985 190.853 315.149 190.107 315.149ZM190.117 313.707C190.522 313.707 190.86 313.596 191.131 313.374C191.403 313.149 191.605 312.847 191.738 312.469C191.874 312.092 191.942 311.671 191.942 311.207C191.942 310.739 191.874 310.317 191.738 309.939C191.605 309.558 191.403 309.254 191.131 309.029C190.86 308.804 190.522 308.691 190.117 308.691C189.703 308.691 189.358 308.804 189.083 309.029C188.811 309.254 188.607 309.558 188.472 309.939C188.339 310.317 188.273 310.739 188.273 311.207C188.273 311.671 188.339 312.092 188.472 312.469C188.607 312.847 188.811 313.149 189.083 313.374C189.358 313.596 189.703 313.707 190.117 313.707Z" fill="black"/>
<path d="M175.159 333V324.273H177.976C178.595 324.273 179.112 324.392 179.527 324.631C179.945 324.866 180.259 325.188 180.469 325.594C180.682 326 180.788 326.457 180.788 326.966C180.788 327.474 180.683 327.933 180.473 328.342C180.263 328.749 179.95 329.071 179.536 329.31C179.121 329.545 178.605 329.663 177.989 329.663H175.773V328.947H177.967C178.425 328.947 178.804 328.862 179.105 328.692C179.406 328.518 179.631 328.283 179.778 327.984C179.929 327.686 180.004 327.347 180.004 326.966C180.004 326.585 179.929 326.246 179.778 325.947C179.631 325.649 179.405 325.415 179.101 325.244C178.8 325.074 178.418 324.989 177.955 324.989H175.956V333H175.159ZM183.26 324.273V333H182.501V324.273H183.26ZM187.095 333.149C186.7 333.149 186.339 333.072 186.013 332.919C185.686 332.763 185.426 332.538 185.233 332.246C185.04 331.95 184.943 331.592 184.943 331.172C184.943 330.848 185.004 330.575 185.126 330.354C185.249 330.132 185.422 329.95 185.646 329.808C185.871 329.666 186.136 329.554 186.443 329.472C186.75 329.389 187.088 329.325 187.457 329.28C187.824 329.234 188.134 329.195 188.386 329.161C188.642 329.126 188.837 329.072 188.97 328.999C189.104 328.925 189.17 328.805 189.17 328.641V328.487C189.17 328.041 189.037 327.69 188.77 327.435C188.506 327.176 188.125 327.047 187.628 327.047C187.156 327.047 186.771 327.151 186.473 327.358C186.178 327.565 185.97 327.81 185.851 328.091L185.131 327.831C185.278 327.473 185.483 327.187 185.744 326.974C186.006 326.759 186.298 326.604 186.622 326.51C186.946 326.413 187.274 326.365 187.607 326.365C187.857 326.365 188.116 326.398 188.386 326.463C188.659 326.528 188.912 326.642 189.145 326.804C189.378 326.963 189.567 327.186 189.712 327.473C189.857 327.757 189.929 328.118 189.929 328.555V333H189.17V331.964H189.124C189.033 332.158 188.898 332.345 188.719 332.527C188.54 332.709 188.315 332.858 188.045 332.974C187.776 333.091 187.459 333.149 187.095 333.149ZM187.197 332.455C187.601 332.455 187.95 332.365 188.246 332.186C188.541 332.007 188.768 331.77 188.928 331.474C189.089 331.176 189.17 330.848 189.17 330.49V329.544C189.114 329.598 189.018 329.646 188.885 329.689C188.754 329.732 188.602 329.77 188.429 329.804C188.259 329.835 188.088 329.862 187.918 329.885C187.747 329.908 187.594 329.928 187.457 329.945C187.088 329.99 186.773 330.061 186.511 330.158C186.25 330.254 186.05 330.388 185.911 330.558C185.771 330.726 185.702 330.942 185.702 331.206C185.702 331.604 185.844 331.912 186.128 332.131C186.412 332.347 186.768 332.455 187.197 332.455ZM192.705 328.909V333H191.947V326.455H192.684V327.482H192.752C192.906 327.146 193.144 326.878 193.468 326.676C193.795 326.472 194.198 326.369 194.678 326.369C195.119 326.369 195.505 326.462 195.837 326.646C196.173 326.828 196.433 327.097 196.617 327.452C196.805 327.807 196.898 328.243 196.898 328.76V333H196.14V328.807C196.14 328.27 195.989 327.845 195.688 327.533C195.39 327.22 194.989 327.064 194.487 327.064C194.143 327.064 193.837 327.138 193.57 327.286C193.303 327.433 193.092 327.646 192.935 327.925C192.782 328.2 192.705 328.528 192.705 328.909ZM201.474 326.455V327.115H198.35V326.455H201.474ZM199.326 324.886H200.089V331.291C200.089 331.564 200.136 331.778 200.23 331.935C200.324 332.088 200.446 332.197 200.596 332.263C200.747 332.325 200.907 332.357 201.078 332.357C201.177 332.357 201.262 332.351 201.333 332.339C201.404 332.325 201.467 332.311 201.521 332.297L201.683 332.983C201.609 333.011 201.518 333.037 201.41 333.06C201.302 333.085 201.169 333.098 201.01 333.098C200.731 333.098 200.463 333.037 200.204 332.915C199.949 332.793 199.738 332.611 199.574 332.369C199.409 332.128 199.326 331.828 199.326 331.47V324.886ZM205.773 333.136C205.162 333.136 204.634 332.994 204.188 332.71C203.741 332.423 203.396 332.027 203.152 331.521C202.911 331.013 202.79 330.428 202.79 329.766C202.79 329.107 202.911 328.521 203.152 328.01C203.396 327.496 203.733 327.094 204.162 326.804C204.594 326.511 205.092 326.365 205.658 326.365C206.013 326.365 206.355 326.43 206.685 326.561C207.014 326.689 207.31 326.886 207.571 327.153C207.835 327.418 208.044 327.751 208.197 328.155C208.351 328.555 208.428 329.03 208.428 329.578V329.953H203.314V329.284H207.652C207.652 328.864 207.567 328.486 207.396 328.151C207.229 327.812 206.994 327.545 206.693 327.349C206.395 327.153 206.05 327.055 205.658 327.055C205.243 327.055 204.878 327.166 204.562 327.388C204.247 327.609 204 327.902 203.821 328.266C203.645 328.629 203.555 329.027 203.553 329.459V329.859C203.553 330.379 203.642 330.834 203.821 331.223C204.003 331.609 204.26 331.909 204.592 332.122C204.925 332.335 205.318 332.442 205.773 332.442C206.082 332.442 206.354 332.393 206.587 332.297C206.822 332.2 207.02 332.071 207.179 331.909C207.341 331.744 207.463 331.564 207.545 331.368L208.266 331.602C208.166 331.878 208.003 332.132 207.776 332.365C207.551 332.598 207.27 332.786 206.932 332.928C206.597 333.067 206.21 333.136 205.773 333.136ZM210.099 333V326.455H210.836V327.46H210.892C211.022 327.131 211.25 326.865 211.574 326.663C211.9 326.459 212.27 326.357 212.681 326.357C212.744 326.357 212.814 326.358 212.89 326.361C212.967 326.364 213.031 326.366 213.082 326.369V327.141C213.048 327.135 212.988 327.126 212.903 327.115C212.818 327.104 212.725 327.098 212.626 327.098C212.285 327.098 211.981 327.17 211.714 327.315C211.45 327.457 211.241 327.655 211.088 327.908C210.934 328.161 210.858 328.449 210.858 328.773V333H210.099ZM220.108 333.136C219.571 333.136 219.101 332.994 218.697 332.71C218.294 332.426 217.979 332.03 217.751 331.521C217.527 331.013 217.415 330.42 217.415 329.744C217.415 329.071 217.527 328.482 217.751 327.976C217.979 327.467 218.295 327.072 218.702 326.791C219.108 326.507 219.581 326.365 220.121 326.365C220.518 326.365 220.849 326.436 221.114 326.578C221.378 326.717 221.589 326.891 221.749 327.098C221.908 327.305 222.031 327.507 222.119 327.703H222.188V324.273H222.95V333H222.209V331.786H222.119C222.031 331.984 221.906 332.189 221.744 332.399C221.582 332.607 221.368 332.781 221.101 332.923C220.837 333.065 220.506 333.136 220.108 333.136ZM220.197 332.442C220.621 332.442 220.982 332.327 221.28 332.097C221.578 331.864 221.805 331.544 221.962 331.138C222.121 330.729 222.2 330.26 222.2 329.732C222.2 329.209 222.122 328.747 221.966 328.347C221.81 327.943 221.582 327.628 221.284 327.401C220.986 327.17 220.624 327.055 220.197 327.055C219.76 327.055 219.391 327.175 219.089 327.413C218.791 327.649 218.564 327.969 218.408 328.372C218.254 328.776 218.178 329.229 218.178 329.732C218.178 330.24 218.256 330.699 218.412 331.108C218.568 331.517 218.795 331.842 219.094 332.084C219.395 332.322 219.763 332.442 220.197 332.442ZM227.757 333.136C227.146 333.136 226.618 332.994 226.172 332.71C225.726 332.423 225.381 332.027 225.136 331.521C224.895 331.013 224.774 330.428 224.774 329.766C224.774 329.107 224.895 328.521 225.136 328.01C225.381 327.496 225.717 327.094 226.146 326.804C226.578 326.511 227.077 326.365 227.642 326.365C227.997 326.365 228.339 326.43 228.669 326.561C228.999 326.689 229.294 326.886 229.555 327.153C229.82 327.418 230.028 327.751 230.182 328.155C230.335 328.555 230.412 329.03 230.412 329.578V329.953H225.298V329.284H229.636C229.636 328.864 229.551 328.486 229.381 328.151C229.213 327.812 228.979 327.545 228.678 327.349C228.379 327.153 228.034 327.055 227.642 327.055C227.227 327.055 226.862 327.166 226.547 327.388C226.232 327.609 225.984 327.902 225.805 328.266C225.629 328.629 225.54 329.027 225.537 329.459V329.859C225.537 330.379 225.626 330.834 225.805 331.223C225.987 331.609 226.244 331.909 226.577 332.122C226.909 332.335 227.303 332.442 227.757 332.442C228.067 332.442 228.338 332.393 228.571 332.297C228.807 332.2 229.004 332.071 229.163 331.909C229.325 331.744 229.447 331.564 229.53 331.368L230.25 331.602C230.151 331.878 229.987 332.132 229.76 332.365C229.536 332.598 229.254 332.786 228.916 332.928C228.581 333.067 228.195 333.136 227.757 333.136ZM236.481 327.891L235.787 328.087C235.718 327.891 235.622 327.713 235.497 327.554C235.372 327.395 235.208 327.268 235.007 327.175C234.808 327.081 234.561 327.034 234.265 327.034C233.822 327.034 233.458 327.139 233.174 327.349C232.89 327.56 232.748 327.831 232.748 328.163C232.748 328.445 232.845 328.673 233.038 328.849C233.234 329.023 233.535 329.161 233.941 329.263L234.93 329.506C235.478 329.639 235.889 329.851 236.162 330.141C236.437 330.43 236.575 330.794 236.575 331.232C236.575 331.601 236.473 331.929 236.268 332.216C236.064 332.503 235.778 332.729 235.412 332.893C235.048 333.055 234.626 333.136 234.146 333.136C233.507 333.136 232.98 332.993 232.565 332.706C232.15 332.416 231.885 331.999 231.768 331.453L232.497 331.274C232.591 331.663 232.774 331.957 233.047 332.156C233.322 332.355 233.684 332.455 234.133 332.455C234.636 332.455 235.038 332.342 235.339 332.118C235.64 331.891 235.791 331.607 235.791 331.266C235.791 331.001 235.703 330.78 235.527 330.601C235.35 330.419 235.083 330.286 234.725 330.2L233.656 329.945C233.088 329.808 232.667 329.592 232.395 329.297C232.122 329.001 231.985 328.635 231.985 328.197C231.985 327.837 232.083 327.52 232.279 327.247C232.475 326.972 232.745 326.756 233.089 326.599C233.433 326.443 233.825 326.365 234.265 326.365C234.865 326.365 235.343 326.501 235.701 326.774C236.062 327.044 236.322 327.416 236.481 327.891ZM243.439 333.149C243.044 333.149 242.683 333.072 242.357 332.919C242.03 332.763 241.77 332.538 241.577 332.246C241.384 331.95 241.287 331.592 241.287 331.172C241.287 330.848 241.348 330.575 241.47 330.354C241.592 330.132 241.766 329.95 241.99 329.808C242.214 329.666 242.48 329.554 242.787 329.472C243.094 329.389 243.432 329.325 243.801 329.28C244.168 329.234 244.477 329.195 244.73 329.161C244.986 329.126 245.18 329.072 245.314 328.999C245.447 328.925 245.514 328.805 245.514 328.641V328.487C245.514 328.041 245.381 327.69 245.114 327.435C244.849 327.176 244.469 327.047 243.972 327.047C243.5 327.047 243.115 327.151 242.817 327.358C242.521 327.565 242.314 327.81 242.195 328.091L241.474 327.831C241.622 327.473 241.827 327.187 242.088 326.974C242.349 326.759 242.642 326.604 242.966 326.51C243.29 326.413 243.618 326.365 243.95 326.365C244.2 326.365 244.46 326.398 244.73 326.463C245.003 326.528 245.256 326.642 245.489 326.804C245.722 326.963 245.911 327.186 246.055 327.473C246.2 327.757 246.273 328.118 246.273 328.555V333H245.514V331.964H245.467C245.376 332.158 245.241 332.345 245.062 332.527C244.884 332.709 244.659 332.858 244.389 332.974C244.119 333.091 243.803 333.149 243.439 333.149ZM243.541 332.455C243.945 332.455 244.294 332.365 244.589 332.186C244.885 332.007 245.112 331.77 245.271 331.474C245.433 331.176 245.514 330.848 245.514 330.49V329.544C245.457 329.598 245.362 329.646 245.229 329.689C245.098 329.732 244.946 329.77 244.773 329.804C244.602 329.835 244.432 329.862 244.261 329.885C244.091 329.908 243.938 329.928 243.801 329.945C243.432 329.99 243.116 330.061 242.855 330.158C242.594 330.254 242.393 330.388 242.254 330.558C242.115 330.726 242.045 330.942 242.045 331.206C242.045 331.604 242.188 331.912 242.472 332.131C242.756 332.347 243.112 332.455 243.541 332.455ZM248.29 333V326.455H249.028V327.46H249.083C249.214 327.131 249.441 326.865 249.765 326.663C250.092 326.459 250.461 326.357 250.873 326.357C250.935 326.357 251.005 326.358 251.082 326.361C251.158 326.364 251.222 326.366 251.273 326.369V327.141C251.239 327.135 251.18 327.126 251.094 327.115C251.009 327.104 250.917 327.098 250.817 327.098C250.477 327.098 250.173 327.17 249.906 327.315C249.641 327.457 249.433 327.655 249.279 327.908C249.126 328.161 249.049 328.449 249.049 328.773V333H248.29ZM252.725 333V324.273H253.488V327.703H253.556C253.642 327.507 253.764 327.305 253.923 327.098C254.085 326.891 254.297 326.717 254.558 326.578C254.822 326.436 255.154 326.365 255.555 326.365C256.092 326.365 256.564 326.507 256.97 326.791C257.376 327.072 257.693 327.467 257.92 327.976C258.147 328.482 258.261 329.071 258.261 329.744C258.261 330.42 258.147 331.013 257.92 331.521C257.696 332.03 257.38 332.426 256.974 332.71C256.571 332.994 256.102 333.136 255.568 333.136C255.17 333.136 254.838 333.065 254.571 332.923C254.306 332.781 254.093 332.607 253.931 332.399C253.77 332.189 253.645 331.984 253.556 331.786H253.463V333H252.725ZM253.475 329.732C253.475 330.26 253.554 330.729 253.71 331.138C253.869 331.544 254.096 331.864 254.392 332.097C254.69 332.327 255.051 332.442 255.474 332.442C255.909 332.442 256.277 332.322 256.578 332.084C256.879 331.842 257.108 331.517 257.264 331.108C257.42 330.699 257.498 330.24 257.498 329.732C257.498 329.229 257.42 328.776 257.264 328.372C257.11 327.969 256.883 327.649 256.582 327.413C256.281 327.175 255.912 327.055 255.474 327.055C255.048 327.055 254.686 327.17 254.387 327.401C254.092 327.628 253.866 327.943 253.71 328.347C253.554 328.747 253.475 329.209 253.475 329.732ZM259.927 333V326.455H260.664V327.46H260.72C260.85 327.131 261.078 326.865 261.402 326.663C261.728 326.459 262.098 326.357 262.51 326.357C262.572 326.357 262.642 326.358 262.718 326.361C262.795 326.364 262.859 326.366 262.91 326.369V327.141C262.876 327.135 262.816 327.126 262.731 327.115C262.646 327.104 262.554 327.098 262.454 327.098C262.113 327.098 261.809 327.17 261.542 327.315C261.278 327.457 261.069 327.655 260.916 327.908C260.762 328.161 260.686 328.449 260.686 328.773V333H259.927ZM266.652 333.136C266.041 333.136 265.512 332.994 265.066 332.71C264.62 332.423 264.275 332.027 264.031 331.521C263.789 331.013 263.669 330.428 263.669 329.766C263.669 329.107 263.789 328.521 264.031 328.01C264.275 327.496 264.612 327.094 265.041 326.804C265.473 326.511 265.971 326.365 266.537 326.365C266.892 326.365 267.234 326.43 267.564 326.561C267.893 326.689 268.189 326.886 268.45 327.153C268.714 327.418 268.923 327.751 269.076 328.155C269.23 328.555 269.306 329.03 269.306 329.578V329.953H264.193V329.284H268.531C268.531 328.864 268.446 328.486 268.275 328.151C268.108 327.812 267.873 327.545 267.572 327.349C267.274 327.153 266.929 327.055 266.537 327.055C266.122 327.055 265.757 327.166 265.441 327.388C265.126 327.609 264.879 327.902 264.7 328.266C264.524 328.629 264.434 329.027 264.431 329.459V329.859C264.431 330.379 264.521 330.834 264.7 331.223C264.882 331.609 265.139 331.909 265.471 332.122C265.804 332.335 266.197 332.442 266.652 332.442C266.961 332.442 267.233 332.393 267.466 332.297C267.701 332.2 267.899 332.071 268.058 331.909C268.22 331.744 268.342 331.564 268.424 331.368L269.145 331.602C269.045 331.878 268.882 332.132 268.654 332.365C268.43 332.598 268.149 332.786 267.811 332.928C267.475 333.067 267.089 333.136 266.652 333.136ZM275.376 327.891L274.681 328.087C274.613 327.891 274.516 327.713 274.391 327.554C274.266 327.395 274.103 327.268 273.901 327.175C273.702 327.081 273.455 327.034 273.16 327.034C272.717 327.034 272.353 327.139 272.069 327.349C271.785 327.56 271.643 327.831 271.643 328.163C271.643 328.445 271.739 328.673 271.933 328.849C272.129 329.023 272.43 329.161 272.836 329.263L273.825 329.506C274.373 329.639 274.783 329.851 275.056 330.141C275.332 330.43 275.469 330.794 275.469 331.232C275.469 331.601 275.367 331.929 275.163 332.216C274.958 332.503 274.673 332.729 274.306 332.893C273.942 333.055 273.521 333.136 273.04 333.136C272.401 333.136 271.874 332.993 271.46 332.706C271.045 332.416 270.779 331.999 270.663 331.453L271.391 331.274C271.485 331.663 271.668 331.957 271.941 332.156C272.217 332.355 272.579 332.455 273.028 332.455C273.531 332.455 273.933 332.342 274.234 332.118C274.535 331.891 274.685 331.607 274.685 331.266C274.685 331.001 274.597 330.78 274.421 330.601C274.245 330.419 273.978 330.286 273.62 330.2L272.55 329.945C271.982 329.808 271.562 329.592 271.289 329.297C271.016 329.001 270.88 328.635 270.88 328.197C270.88 327.837 270.978 327.52 271.174 327.247C271.37 326.972 271.64 326.756 271.984 326.599C272.327 326.443 272.719 326.365 273.16 326.365C273.759 326.365 274.238 326.501 274.596 326.774C274.957 327.044 275.217 327.416 275.376 327.891Z" fill="black"/>
<rect x="117" y="298" width="45" height="45" rx="22.5" fill="#9227F9"/>
<path d="M136.758 320.883C140.117 324.047 143.594 325.922 148.164 326.625M142.574 317.696C139.102 315.453 135.508 317.063 132.188 313.548C131.414 312.727 131.863 322.747 136.02 326.544C139.058 329.317 143.75 329.008 145.332 326.313C146.914 323.617 146.046 319.939 142.574 317.696V317.696Z" stroke="white" stroke-width="2" stroke-linecap="round" stroke-linejoin="round"/>
<line x1="39.5" y1="175.5" x2="39.5" y2="377.5" stroke="white" stroke-width="3" stroke-linecap="round"/>
<rect x="38" y="173" width="3" height="104" rx="1.5" fill="#9227F9"/>
<circle cx="40" cy="227" r="20" fill="#9227F9"/>
<circle cx="39" cy="324" r="20" fill="white"/>
</g>
<path d="M47 220L36.5 233.5L30 226.5" stroke="white" stroke-width="2" stroke-linecap="round" stroke-linejoin="round"/>
<path d="M47 332L36.5 345.5L30 338.5" stroke="white" stroke-width="2" stroke-linecap="round" stroke-linejoin="round"/>
<path d="M3.14773 147.364H5.72727L9.18182 155.795H9.31818L12.7727 147.364H15.3523V159H13.3295V151.006H13.2216L10.0057 158.966H8.49432L5.27841 150.989H5.17045V159H3.14773V147.364ZM21.4205 159.17C20.5455 159.17 19.7898 158.989 19.1534 158.625C18.5208 158.258 18.0341 157.739 17.6932 157.068C17.3523 156.394 17.1818 155.6 17.1818 154.688C17.1818 153.79 17.3523 153.002 17.6932 152.324C18.0379 151.642 18.5189 151.112 19.1364 150.733C19.7538 150.35 20.4792 150.159 21.3125 150.159C21.8504 150.159 22.358 150.246 22.8352 150.42C23.3163 150.591 23.7405 150.856 24.108 151.216C24.4792 151.576 24.7708 152.034 24.983 152.591C25.1951 153.144 25.3011 153.803 25.3011 154.568V155.199H18.1477V153.812H23.3295C23.3258 153.419 23.2405 153.068 23.0739 152.761C22.9072 152.451 22.6742 152.206 22.375 152.028C22.0795 151.85 21.7348 151.761 21.3409 151.761C20.9205 151.761 20.5511 151.864 20.233 152.068C19.9148 152.269 19.6667 152.534 19.4886 152.864C19.3144 153.189 19.2254 153.547 19.2216 153.938V155.148C19.2216 155.655 19.3144 156.091 19.5 156.455C19.6856 156.814 19.9451 157.091 20.2784 157.284C20.6117 157.473 21.0019 157.568 21.4489 157.568C21.7481 157.568 22.0189 157.527 22.2614 157.443C22.5038 157.356 22.714 157.229 22.892 157.062C23.0701 156.896 23.2045 156.689 23.2955 156.443L25.2159 156.659C25.0947 157.167 24.8636 157.61 24.5227 157.989C24.1856 158.364 23.7538 158.655 23.2273 158.864C22.7008 159.068 22.0985 159.17 21.4205 159.17ZM27.0412 159V150.273H29.0355V151.727H29.1264C29.2855 151.223 29.5582 150.835 29.9446 150.562C30.3348 150.286 30.7798 150.148 31.2798 150.148C31.3935 150.148 31.5204 150.153 31.6605 150.165C31.8045 150.172 31.9238 150.186 32.0185 150.205V152.097C31.9313 152.066 31.7931 152.04 31.6037 152.017C31.4181 151.991 31.2382 151.977 31.0639 151.977C30.6889 151.977 30.3518 152.059 30.0526 152.222C29.7571 152.381 29.5241 152.602 29.3537 152.886C29.1832 153.17 29.098 153.498 29.098 153.869V159H27.0412ZM36.8324 159.17C35.9612 159.17 35.2131 158.979 34.5881 158.597C33.9669 158.214 33.4877 157.686 33.1506 157.011C32.8172 156.333 32.6506 155.553 32.6506 154.67C32.6506 153.784 32.821 153.002 33.1619 152.324C33.5028 151.642 33.9839 151.112 34.6051 150.733C35.2301 150.35 35.9688 150.159 36.821 150.159C37.5294 150.159 38.1563 150.29 38.7017 150.551C39.2509 150.809 39.6884 151.174 40.0142 151.648C40.34 152.117 40.5256 152.667 40.571 153.295H38.6051C38.5256 152.875 38.3362 152.525 38.0369 152.244C37.7415 151.96 37.3456 151.818 36.8494 151.818C36.429 151.818 36.0597 151.932 35.7415 152.159C35.4233 152.383 35.1752 152.705 34.9972 153.125C34.8229 153.545 34.7358 154.049 34.7358 154.636C34.7358 155.231 34.8229 155.742 34.9972 156.17C35.1714 156.595 35.4157 156.922 35.7301 157.153C36.0483 157.381 36.4214 157.494 36.8494 157.494C37.1525 157.494 37.4233 157.437 37.6619 157.324C37.9044 157.206 38.107 157.038 38.2699 156.818C38.4328 156.598 38.5445 156.331 38.6051 156.017H40.571C40.5218 156.634 40.34 157.182 40.0256 157.659C39.7112 158.133 39.2831 158.504 38.7415 158.773C38.1998 159.038 37.5634 159.17 36.8324 159.17ZM42.2599 159V150.273H44.2543V151.727H44.3452C44.5043 151.223 44.777 150.835 45.1634 150.562C45.5535 150.286 45.9986 150.148 46.4986 150.148C46.6122 150.148 46.7391 150.153 46.8793 150.165C47.0232 150.172 47.1425 150.186 47.2372 150.205V152.097C47.1501 152.066 47.0118 152.04 46.8224 152.017C46.6368 151.991 46.4569 151.977 46.2827 151.977C45.9077 151.977 45.5705 152.059 45.2713 152.222C44.9759 152.381 44.7429 152.602 44.5724 152.886C44.402 153.17 44.3168 153.498 44.3168 153.869V159H42.2599ZM52.108 159.17C51.233 159.17 50.4773 158.989 49.8409 158.625C49.2083 158.258 48.7216 157.739 48.3807 157.068C48.0398 156.394 47.8693 155.6 47.8693 154.688C47.8693 153.79 48.0398 153.002 48.3807 152.324C48.7254 151.642 49.2064 151.112 49.8239 150.733C50.4413 150.35 51.1667 150.159 52 150.159C52.5379 150.159 53.0455 150.246 53.5227 150.42C54.0038 150.591 54.428 150.856 54.7955 151.216C55.1667 151.576 55.4583 152.034 55.6705 152.591C55.8826 153.144 55.9886 153.803 55.9886 154.568V155.199H48.8352V153.812H54.017C54.0133 153.419 53.928 153.068 53.7614 152.761C53.5947 152.451 53.3617 152.206 53.0625 152.028C52.767 151.85 52.4223 151.761 52.0284 151.761C51.608 151.761 51.2386 151.864 50.9205 152.068C50.6023 152.269 50.3542 152.534 50.1761 152.864C50.0019 153.189 49.9129 153.547 49.9091 153.938V155.148C49.9091 155.655 50.0019 156.091 50.1875 156.455C50.3731 156.814 50.6326 157.091 50.9659 157.284C51.2992 157.473 51.6894 157.568 52.1364 157.568C52.4356 157.568 52.7064 157.527 52.9489 157.443C53.1913 157.356 53.4015 157.229 53.5795 157.062C53.7576 156.896 53.892 156.689 53.983 156.443L55.9034 156.659C55.7822 157.167 55.5511 157.61 55.2102 157.989C54.8731 158.364 54.4413 158.655 53.9148 158.864C53.3883 159.068 52.786 159.17 52.108 159.17ZM60.9673 159.153C60.2817 159.153 59.6681 158.977 59.1264 158.625C58.5848 158.273 58.1567 157.761 57.8423 157.091C57.5279 156.42 57.3707 155.606 57.3707 154.648C57.3707 153.678 57.5298 152.86 57.848 152.193C58.17 151.523 58.6037 151.017 59.1491 150.676C59.6946 150.331 60.3026 150.159 60.973 150.159C61.4844 150.159 61.9048 150.246 62.2344 150.42C62.5639 150.591 62.8253 150.797 63.0185 151.04C63.2116 151.278 63.3613 151.504 63.4673 151.716H63.5526V147.364H65.6151V159H63.5923V157.625H63.4673C63.3613 157.837 63.2079 158.062 63.0071 158.301C62.8063 158.536 62.5412 158.737 62.2116 158.903C61.8821 159.07 61.4673 159.153 60.9673 159.153ZM61.5412 157.466C61.9768 157.466 62.348 157.348 62.6548 157.114C62.9616 156.875 63.1946 156.544 63.3537 156.119C63.5128 155.695 63.5923 155.201 63.5923 154.636C63.5923 154.072 63.5128 153.581 63.3537 153.165C63.1984 152.748 62.9673 152.424 62.6605 152.193C62.3575 151.962 61.9844 151.847 61.5412 151.847C61.0829 151.847 60.7003 151.966 60.3935 152.205C60.0866 152.443 59.8556 152.773 59.7003 153.193C59.545 153.614 59.4673 154.095 59.4673 154.636C59.4673 155.182 59.545 155.669 59.7003 156.097C59.8594 156.521 60.0923 156.856 60.3991 157.102C60.7098 157.345 61.0904 157.466 61.5412 157.466ZM67.8068 159V150.273H69.8636V159H67.8068ZM68.8409 149.034C68.5152 149.034 68.2348 148.926 68 148.71C67.7652 148.491 67.6477 148.227 67.6477 147.92C67.6477 147.61 67.7652 147.347 68 147.131C68.2348 146.911 68.5152 146.801 68.8409 146.801C69.1705 146.801 69.4508 146.911 69.6818 147.131C69.9167 147.347 70.0341 147.61 70.0341 147.92C70.0341 148.227 69.9167 148.491 69.6818 148.71C69.4508 148.926 69.1705 149.034 68.8409 149.034ZM75.9247 159V157.477L79.9645 153.517C80.3509 153.127 80.6728 152.78 80.9304 152.477C81.188 152.174 81.3812 151.881 81.5099 151.597C81.6387 151.312 81.7031 151.009 81.7031 150.688C81.7031 150.32 81.6198 150.006 81.4531 149.744C81.2865 149.479 81.0573 149.275 80.7656 149.131C80.474 148.987 80.1425 148.915 79.7713 148.915C79.3887 148.915 79.0535 148.994 78.7656 149.153C78.4777 149.309 78.2543 149.53 78.0952 149.818C77.9399 150.106 77.8622 150.449 77.8622 150.847H75.8565C75.8565 150.108 76.0251 149.466 76.3622 148.92C76.6993 148.375 77.1634 147.953 77.7543 147.653C78.349 147.354 79.0308 147.205 79.7997 147.205C80.58 147.205 81.2656 147.35 81.8565 147.642C82.4474 147.934 82.9058 148.333 83.2315 148.841C83.5611 149.348 83.7259 149.928 83.7259 150.58C83.7259 151.015 83.6425 151.443 83.4759 151.864C83.3092 152.284 83.0156 152.75 82.5952 153.261C82.1785 153.773 81.5933 154.392 80.8395 155.119L78.8338 157.159V157.239H83.902V159H75.9247ZM85.8622 159V157.477L89.902 153.517C90.2884 153.127 90.6103 152.78 90.8679 152.477C91.1255 152.174 91.3187 151.881 91.4474 151.597C91.5762 151.312 91.6406 151.009 91.6406 150.688C91.6406 150.32 91.5573 150.006 91.3906 149.744C91.224 149.479 90.9948 149.275 90.7031 149.131C90.4115 148.987 90.08 148.915 89.7088 148.915C89.3262 148.915 88.991 148.994 88.7031 149.153C88.4152 149.309 88.1918 149.53 88.0327 149.818C87.8774 150.106 87.7997 150.449 87.7997 150.847H85.794C85.794 150.108 85.9626 149.466 86.2997 148.92C86.6368 148.375 87.1009 147.953 87.6918 147.653C88.2865 147.354 88.9683 147.205 89.7372 147.205C90.5175 147.205 91.2031 147.35 91.794 147.642C92.3849 147.934 92.8433 148.333 93.169 148.841C93.4986 149.348 93.6634 149.928 93.6634 150.58C93.6634 151.015 93.58 151.443 93.4134 151.864C93.2467 152.284 92.9531 152.75 92.5327 153.261C92.116 153.773 91.5308 154.392 90.777 155.119L88.7713 157.159V157.239H93.8395V159H85.8622ZM99.8821 159V147.364H107.337V149.131H101.99V152.29H106.825V154.057H101.99V159H99.8821ZM112.389 159.17C111.514 159.17 110.759 158.989 110.122 158.625C109.49 158.258 109.003 157.739 108.662 157.068C108.321 156.394 108.151 155.6 108.151 154.688C108.151 153.79 108.321 153.002 108.662 152.324C109.007 151.642 109.488 151.112 110.105 150.733C110.723 150.35 111.448 150.159 112.281 150.159C112.819 150.159 113.327 150.246 113.804 150.42C114.285 150.591 114.709 150.856 115.077 151.216C115.448 151.576 115.74 152.034 115.952 152.591C116.164 153.144 116.27 153.803 116.27 154.568V155.199H109.116V153.812H114.298C114.295 153.419 114.209 153.068 114.043 152.761C113.876 152.451 113.643 152.206 113.344 152.028C113.048 151.85 112.704 151.761 112.31 151.761C111.889 151.761 111.52 151.864 111.202 152.068C110.884 152.269 110.635 152.534 110.457 152.864C110.283 153.189 110.194 153.547 110.19 153.938V155.148C110.19 155.655 110.283 156.091 110.469 156.455C110.654 156.814 110.914 157.091 111.247 157.284C111.58 157.473 111.971 157.568 112.418 157.568C112.717 157.568 112.988 157.527 113.23 157.443C113.473 157.356 113.683 157.229 113.861 157.062C114.039 156.896 114.173 156.689 114.264 156.443L116.185 156.659C116.063 157.167 115.832 157.61 115.491 157.989C115.154 158.364 114.723 158.655 114.196 158.864C113.67 159.068 113.067 159.17 112.389 159.17ZM111.435 149.125L112.707 146.528H114.719L112.974 149.125H111.435ZM125.555 150.273L122.447 159H120.175L117.067 150.273H119.26L121.266 156.756H121.357L123.368 150.273H125.555ZM126.979 159V150.273H128.973V151.727H129.064C129.223 151.223 129.496 150.835 129.882 150.562C130.272 150.286 130.717 150.148 131.217 150.148C131.331 150.148 131.458 150.153 131.598 150.165C131.742 150.172 131.861 150.186 131.956 150.205V152.097C131.869 152.066 131.731 152.04 131.541 152.017C131.356 151.991 131.176 151.977 131.001 151.977C130.626 151.977 130.289 152.059 129.99 152.222C129.695 152.381 129.462 152.602 129.291 152.886C129.121 153.17 129.036 153.498 129.036 153.869V159H126.979ZM133.322 159V150.273H135.379V159H133.322ZM134.357 149.034C134.031 149.034 133.75 148.926 133.516 148.71C133.281 148.491 133.163 148.227 133.163 147.92C133.163 147.61 133.281 147.347 133.516 147.131C133.75 146.911 134.031 146.801 134.357 146.801C134.686 146.801 134.966 146.911 135.197 147.131C135.432 147.347 135.55 147.61 135.55 147.92C135.55 148.227 135.432 148.491 135.197 148.71C134.966 148.926 134.686 149.034 134.357 149.034ZM141.358 159.17C140.483 159.17 139.727 158.989 139.091 158.625C138.458 158.258 137.972 157.739 137.631 157.068C137.29 156.394 137.119 155.6 137.119 154.688C137.119 153.79 137.29 153.002 137.631 152.324C137.975 151.642 138.456 151.112 139.074 150.733C139.691 150.35 140.417 150.159 141.25 150.159C141.788 150.159 142.295 150.246 142.773 150.42C143.254 150.591 143.678 150.856 144.045 151.216C144.417 151.576 144.708 152.034 144.92 152.591C145.133 153.144 145.239 153.803 145.239 154.568V155.199H138.085V153.812H143.267C143.263 153.419 143.178 153.068 143.011 152.761C142.845 152.451 142.612 152.206 142.312 152.028C142.017 151.85 141.672 151.761 141.278 151.761C140.858 151.761 140.489 151.864 140.17 152.068C139.852 152.269 139.604 152.534 139.426 152.864C139.252 153.189 139.163 153.547 139.159 153.938V155.148C139.159 155.655 139.252 156.091 139.438 156.455C139.623 156.814 139.883 157.091 140.216 157.284C140.549 157.473 140.939 157.568 141.386 157.568C141.686 157.568 141.956 157.527 142.199 157.443C142.441 157.356 142.652 157.229 142.83 157.062C143.008 156.896 143.142 156.689 143.233 156.443L145.153 156.659C145.032 157.167 144.801 157.61 144.46 157.989C144.123 158.364 143.691 158.655 143.165 158.864C142.638 159.068 142.036 159.17 141.358 159.17ZM146.979 159V150.273H148.973V151.727H149.064C149.223 151.223 149.496 150.835 149.882 150.562C150.272 150.286 150.717 150.148 151.217 150.148C151.331 150.148 151.458 150.153 151.598 150.165C151.742 150.172 151.861 150.186 151.956 150.205V152.097C151.869 152.066 151.731 152.04 151.541 152.017C151.356 151.991 151.176 151.977 151.001 151.977C150.626 151.977 150.289 152.059 149.99 152.222C149.695 152.381 149.462 152.602 149.291 152.886C149.121 153.17 149.036 153.498 149.036 153.869V159H146.979Z" fill="black"/>
<path d="M324.767 147.364V159H322.659V149.415H322.591L319.869 151.153V149.222L322.761 147.364H324.767Z" fill="#9227F9"/>
<path d="M332.494 146.818L328.744 160.75H326.943L330.693 146.818H332.494ZM333.784 159V157.477L337.824 153.517C338.21 153.127 338.532 152.78 338.79 152.477C339.047 152.174 339.241 151.881 339.369 151.597C339.498 151.312 339.562 151.009 339.562 150.688C339.562 150.32 339.479 150.006 339.312 149.744C339.146 149.479 338.917 149.275 338.625 149.131C338.333 148.987 338.002 148.915 337.631 148.915C337.248 148.915 336.913 148.994 336.625 149.153C336.337 149.309 336.114 149.53 335.955 149.818C335.799 150.106 335.722 150.449 335.722 150.847H333.716C333.716 150.108 333.884 149.466 334.222 148.92C334.559 148.375 335.023 147.953 335.614 147.653C336.208 147.354 336.89 147.205 337.659 147.205C338.439 147.205 339.125 147.35 339.716 147.642C340.307 147.934 340.765 148.333 341.091 148.841C341.42 149.348 341.585 149.928 341.585 150.58C341.585 151.015 341.502 151.443 341.335 151.864C341.169 152.284 340.875 152.75 340.455 153.261C340.038 153.773 339.453 154.392 338.699 155.119L336.693 157.159V157.239H341.761V159H333.784Z" fill="black"/>
<mask id="mask1_540_425" style="mask-type:alpha" maskUnits="userSpaceOnUse" x="0" y="39" width="348" height="85">
<rect y="39" width="348" height="85" fill="#D9D9D9"/>
</mask>
<g mask="url(#mask1_540_425)">
<mask id="mask2_540_425" style="mask-type:alpha" maskUnits="userSpaceOnUse" x="0" y="39" width="67" height="85">
<rect y="39" width="67" height="85" rx="13" fill="white"/>
</mask>
<g mask="url(#mask2_540_425)">
<rect x="-0.00012207" y="39" width="67" height="85" rx="13" fill="white"/>
<path d="M70.0329 115.085C76.8794 126.548 34.1394 134.925 20.5 130.044C6.86069 125.164 -18.2539 133.194 -8.56432 103.351C-2.71096 81.6377 -4.50004 94.9999 40 87.4999C84.5 79.9999 62.0546 72.8769 70.0329 115.085Z" fill="#9227F9"/>
<path d="M16.5916 82V79.0085L23.5813 72.5366C24.1758 71.9613 24.6744 71.4435 25.0771 70.9833C25.4862 70.5231 25.7962 70.0724 26.0071 69.6314C26.218 69.1839 26.3235 68.7013 26.3235 68.1836C26.3235 67.6083 26.1925 67.1129 25.9304 66.6974C25.6683 66.2756 25.3104 65.9528 24.8565 65.729C24.4027 65.4989 23.8881 65.3839 23.3129 65.3839C22.712 65.3839 22.1879 65.5053 21.7404 65.7482C21.293 65.9911 20.9478 66.3395 20.7049 66.7933C20.462 67.2472 20.3406 67.7873 20.3406 68.4137H16.3999C16.3999 67.1289 16.6907 66.0135 17.2724 65.0675C17.854 64.1214 18.669 63.3896 19.7173 62.8718C20.7656 62.354 21.9737 62.0952 23.3416 62.0952C24.7479 62.0952 25.9719 62.3445 27.0138 62.843C28.0621 63.3352 28.8771 64.0192 29.4588 64.8949C30.0405 65.7706 30.3313 66.7741 30.3313 67.9055C30.3313 68.647 30.1843 69.3789 29.8903 70.1012C29.6026 70.8235 29.0881 71.6257 28.3466 72.5078C27.6051 73.3835 26.56 74.435 25.2113 75.6623L22.3445 78.4716V78.6058H30.5902V82H16.5916ZM41.2977 82.4315C39.6485 82.4251 38.2295 82.0192 37.0406 81.2138C35.858 80.4084 34.9472 79.2418 34.308 77.7141C33.6752 76.1864 33.3619 74.3487 33.3683 72.201C33.3683 70.0597 33.6847 68.2347 34.3176 66.7262C34.9568 65.2177 35.8676 64.0703 37.0502 63.2841C38.2391 62.4915 39.6549 62.0952 41.2977 62.0952C42.9404 62.0952 44.3531 62.4915 45.5356 63.2841C46.7245 64.0767 47.6386 65.2273 48.2778 66.7358C48.917 68.2379 49.2334 70.0597 49.227 72.201C49.227 74.3551 48.9074 76.196 48.2682 77.7237C47.6354 79.2514 46.7277 80.418 45.5452 81.2234C44.3627 82.0288 42.9468 82.4315 41.2977 82.4315ZM41.2977 78.9893C42.4227 78.9893 43.3208 78.4237 43.9919 77.2923C44.6631 76.1609 44.9955 74.4638 44.9891 72.201C44.9891 70.7116 44.8357 69.4716 44.5289 68.4808C44.2284 67.4901 43.8002 66.7454 43.2441 66.2468C42.6943 65.7482 42.0455 65.4989 41.2977 65.4989C40.1791 65.4989 39.2842 66.0582 38.613 67.1768C37.9419 68.2955 37.6031 69.9702 37.5967 72.201C37.5967 73.7095 37.7469 74.9688 38.0473 75.9787C38.3541 76.9822 38.7856 77.7365 39.3417 78.2415C39.8978 78.7401 40.5498 78.9893 41.2977 78.9893Z" fill="black"/>
<path d="M16.0387 102V92.5455H17.4652V100.772H21.7493V102H16.0387ZM27.7576 99.0593V94.9091H29.1426V102H27.7853V100.772H27.7115C27.5484 101.151 27.2868 101.466 26.9267 101.718C26.5697 101.968 26.1249 102.092 25.5925 102.092C25.137 102.092 24.7338 101.992 24.383 101.792C24.0352 101.589 23.7613 101.289 23.5613 100.892C23.3643 100.495 23.2658 100.004 23.2658 99.4194V94.9091H24.6461V99.2532C24.6461 99.7364 24.78 100.121 25.0478 100.407C25.3155 100.694 25.6633 100.837 26.0911 100.837C26.3496 100.837 26.6066 100.772 26.862 100.643C27.1206 100.513 27.3345 100.318 27.5037 100.056C27.6761 99.7949 27.7607 99.4625 27.7576 99.0593ZM32.3776 97.7898V102H30.9972V94.9091H32.3222V96.0632H32.4099C32.573 95.6877 32.8285 95.3861 33.1762 95.1584C33.5271 94.9306 33.9687 94.8168 34.5012 94.8168C34.9843 94.8168 35.4075 94.9183 35.7707 95.1214C36.1338 95.3215 36.4155 95.62 36.6155 96.017C36.8155 96.4141 36.9156 96.9049 36.9156 97.4897V102H35.5352V97.6559C35.5352 97.1419 35.4014 96.7403 35.1336 96.451C34.8659 96.1586 34.4981 96.0124 34.0303 96.0124C33.7102 96.0124 33.4255 96.0817 33.1762 96.2202C32.93 96.3587 32.7346 96.5618 32.5899 96.8295C32.4484 97.0942 32.3776 97.4143 32.3776 97.7898ZM41.4213 102.138C40.8488 102.138 40.3379 101.992 39.8886 101.7C39.4423 101.404 39.0915 100.984 38.836 100.44C38.5837 99.8918 38.4575 99.2347 38.4575 98.4684C38.4575 97.7021 38.5852 97.0465 38.8406 96.5018C39.0992 95.957 39.4531 95.54 39.9024 95.2507C40.3518 94.9614 40.8611 94.8168 41.4305 94.8168C41.8706 94.8168 42.2245 94.8906 42.4923 95.0384C42.7631 95.183 42.9724 95.3523 43.1201 95.5462C43.2709 95.7401 43.3879 95.9109 43.471 96.0586H43.5541V92.5455H44.9344V102H43.5864V100.897H43.471C43.3879 101.047 43.2678 101.22 43.1109 101.414C42.957 101.608 42.7446 101.777 42.4738 101.922C42.203 102.066 41.8521 102.138 41.4213 102.138ZM41.7259 100.961C42.123 100.961 42.4584 100.857 42.7323 100.647C43.0093 100.435 43.2186 100.141 43.3602 99.7656C43.5048 99.3902 43.5771 98.9531 43.5771 98.4545C43.5771 97.9621 43.5064 97.5312 43.3648 97.1619C43.2232 96.7926 43.0155 96.5049 42.7416 96.2987C42.4677 96.0924 42.1291 95.9893 41.7259 95.9893C41.3105 95.9893 40.9642 96.0971 40.6872 96.3125C40.4102 96.5279 40.201 96.8219 40.0594 97.1942C39.9209 97.5666 39.8517 97.9867 39.8517 98.4545C39.8517 98.9285 39.9224 99.3548 40.064 99.7333C40.2056 100.112 40.4149 100.412 40.6919 100.634C40.9719 100.852 41.3166 100.961 41.7259 100.961ZM46.9045 102V94.9091H48.2848V102H46.9045ZM47.6016 93.815C47.3615 93.815 47.1553 93.735 46.983 93.5749C46.8137 93.4118 46.729 93.2179 46.729 92.9933C46.729 92.7655 46.8137 92.5716 46.983 92.4116C47.1553 92.2485 47.3615 92.1669 47.6016 92.1669C47.8416 92.1669 48.0463 92.2485 48.2156 92.4116C48.3879 92.5716 48.4741 92.7655 48.4741 92.9933C48.4741 93.2179 48.3879 93.4118 48.2156 93.5749C48.0463 93.735 47.8416 93.815 47.6016 93.815Z" fill="black"/>
</g>
<mask id="mask3_540_425" style="mask-type:alpha" maskUnits="userSpaceOnUse" x="84" y="39" width="67" height="85">
<rect x="84" y="39" width="67" height="85" rx="13" fill="white"/>
</mask>
<g mask="url(#mask3_540_425)">
<rect x="84" y="39" width="67" height="85" rx="13" fill="white"/>
<path d="M154.033 130.044C160.879 141.507 118.139 149.884 104.5 145.003C90.8605 140.123 65.7459 148.153 75.4355 118.31C81.2888 96.5968 84.9996 92.959 124 102.459C163 111.959 146.054 87.836 154.033 130.044Z" fill="#9227F9"/>
<path d="M103.592 82V79.0085L110.581 72.5366C111.176 71.9613 111.674 71.4435 112.077 70.9833C112.486 70.5231 112.796 70.0724 113.007 69.6314C113.218 69.1839 113.324 68.7013 113.324 68.1836C113.324 67.6083 113.192 67.1129 112.93 66.6974C112.668 66.2756 112.31 65.9528 111.857 65.729C111.403 65.4989 110.888 65.3839 110.313 65.3839C109.712 65.3839 109.188 65.5053 108.74 65.7482C108.293 65.9911 107.948 66.3395 107.705 66.7933C107.462 67.2472 107.341 67.7873 107.341 68.4137H103.4C103.4 67.1289 103.691 66.0135 104.272 65.0675C104.854 64.1214 105.669 63.3896 106.717 62.8718C107.766 62.354 108.974 62.0952 110.342 62.0952C111.748 62.0952 112.972 62.3445 114.014 62.843C115.062 63.3352 115.877 64.0192 116.459 64.8949C117.04 65.7706 117.331 66.7741 117.331 67.9055C117.331 68.647 117.184 69.3789 116.89 70.1012C116.603 70.8235 116.088 71.6257 115.347 72.5078C114.605 73.3835 113.56 74.435 112.211 75.6623L109.344 78.4716V78.6058H117.59V82H103.592ZM129.141 62.3636V82H124.99V66.3043H124.875L120.378 69.1232V65.4414L125.239 62.3636H129.141Z" fill="black"/>
<path d="M100.039 92.5455H101.77L104.78 99.8949H104.891L107.901 92.5455H109.632V102H108.275V95.1584H108.187L105.398 101.986H104.272L101.484 95.1538H101.396V102H100.039V92.5455ZM113.658 102.157C113.209 102.157 112.803 102.074 112.44 101.908C112.077 101.738 111.789 101.494 111.576 101.174C111.367 100.854 111.263 100.461 111.263 99.9964C111.263 99.5964 111.339 99.267 111.493 99.0085C111.647 98.75 111.855 98.5453 112.117 98.3945C112.378 98.2437 112.671 98.1299 112.994 98.0529C113.317 97.976 113.646 97.9175 113.982 97.8775C114.406 97.8282 114.751 97.7882 115.016 97.7575C115.28 97.7236 115.473 97.6697 115.593 97.5959C115.713 97.522 115.773 97.402 115.773 97.2358V97.2035C115.773 96.8003 115.659 96.4879 115.431 96.2663C115.207 96.0447 114.871 95.9339 114.425 95.9339C113.96 95.9339 113.594 96.037 113.326 96.2433C113.061 96.4464 112.878 96.6726 112.777 96.9219L111.479 96.6264C111.633 96.1955 111.858 95.8478 112.153 95.5831C112.452 95.3153 112.795 95.1214 113.183 95.0014C113.571 94.8783 113.979 94.8168 114.406 94.8168C114.689 94.8168 114.99 94.8506 115.307 94.9183C115.627 94.983 115.925 95.103 116.202 95.2784C116.482 95.4538 116.711 95.7047 116.89 96.0309C117.069 96.354 117.158 96.7741 117.158 97.2912V102H115.81V101.031H115.754C115.665 101.209 115.531 101.384 115.353 101.557C115.174 101.729 114.945 101.872 114.665 101.986C114.385 102.1 114.049 102.157 113.658 102.157ZM113.959 101.049C114.34 101.049 114.666 100.974 114.937 100.823C115.211 100.672 115.419 100.475 115.56 100.232C115.705 99.9857 115.777 99.7225 115.777 99.4425V98.5284C115.728 98.5777 115.633 98.6238 115.491 98.6669C115.353 98.7069 115.194 98.7423 115.016 98.7731C114.837 98.8008 114.663 98.8269 114.494 98.8516C114.325 98.8731 114.183 98.8916 114.069 98.907C113.802 98.9408 113.557 98.9978 113.335 99.0778C113.117 99.1578 112.941 99.2732 112.809 99.424C112.68 99.5717 112.615 99.7687 112.615 100.015C112.615 100.357 112.741 100.615 112.994 100.79C113.246 100.963 113.568 101.049 113.959 101.049ZM118.996 102V94.9091H120.33V96.0355H120.404C120.534 95.6539 120.761 95.3538 121.088 95.1353C121.417 94.9137 121.789 94.8029 122.205 94.8029C122.291 94.8029 122.392 94.806 122.509 94.8121C122.629 94.8183 122.723 94.826 122.791 94.8352V96.1555C122.736 96.1402 122.637 96.1232 122.496 96.1048C122.354 96.0832 122.212 96.0724 122.071 96.0724C121.745 96.0724 121.454 96.1417 121.198 96.2802C120.946 96.4156 120.746 96.6049 120.598 96.848C120.45 97.0881 120.377 97.362 120.377 97.6697V102H118.996ZM126.386 102.138C125.814 102.138 125.303 101.992 124.853 101.7C124.407 101.404 124.056 100.984 123.801 100.44C123.549 99.8918 123.422 99.2347 123.422 98.4684C123.422 97.7021 123.55 97.0465 123.805 96.5018C124.064 95.957 124.418 95.54 124.867 95.2507C125.317 94.9614 125.826 94.8168 126.395 94.8168C126.835 94.8168 127.189 94.8906 127.457 95.0384C127.728 95.183 127.937 95.3523 128.085 95.5462C128.236 95.7401 128.353 95.9109 128.436 96.0586H128.519V92.5455H129.899V102H128.551V100.897H128.436C128.353 101.047 128.233 101.22 128.076 101.414C127.922 101.608 127.709 101.777 127.439 101.922C127.168 102.066 126.817 102.138 126.386 102.138ZM126.691 100.961C127.088 100.961 127.423 100.857 127.697 100.647C127.974 100.435 128.183 100.141 128.325 99.7656C128.47 99.3902 128.542 98.9531 128.542 98.4545C128.542 97.9621 128.471 97.5312 128.33 97.1619C128.188 96.7926 127.98 96.5049 127.706 96.2987C127.432 96.0924 127.094 95.9893 126.691 95.9893C126.275 95.9893 125.929 96.0971 125.652 96.3125C125.375 96.5279 125.166 96.8219 125.024 97.1942C124.886 97.5666 124.816 97.9867 124.816 98.4545C124.816 98.9285 124.887 99.3548 125.029 99.7333C125.17 100.112 125.38 100.412 125.657 100.634C125.937 100.852 126.281 100.961 126.691 100.961ZM131.869 102V94.9091H133.25V102H131.869ZM132.566 93.815C132.326 93.815 132.12 93.735 131.948 93.5749C131.779 93.4118 131.694 93.2179 131.694 92.9933C131.694 92.7655 131.779 92.5716 131.948 92.4116C132.12 92.2485 132.326 92.1669 132.566 92.1669C132.806 92.1669 133.011 92.2485 133.18 92.4116C133.353 92.5716 133.439 92.7655 133.439 92.9933C133.439 93.2179 133.353 93.4118 133.18 93.5749C133.011 93.735 132.806 93.815 132.566 93.815Z" fill="black"/>
</g>
<mask id="mask4_540_425" style="mask-type:alpha" maskUnits="userSpaceOnUse" x="168" y="39" width="67" height="85">
<rect x="168" y="39" width="67" height="85" rx="13" fill="white"/>
</mask>
<g mask="url(#mask4_540_425)">
<rect x="168" y="39" width="67" height="85" rx="13" fill="white"/>
<path d="M251 127.115C257.846 138.578 205.106 158.688 191.467 153.808C177.828 148.928 152.713 156.957 162.403 127.115C168.256 105.401 136.5 114.5 181 107C225.5 99.5 243.022 84.9061 251 127.115Z" fill="#9227F9"/>
<path d="M184.592 82V79.0085L191.581 72.5366C192.176 71.9613 192.674 71.4435 193.077 70.9833C193.486 70.5231 193.796 70.0724 194.007 69.6314C194.218 69.1839 194.324 68.7013 194.324 68.1836C194.324 67.6083 194.192 67.1129 193.93 66.6974C193.668 66.2756 193.31 65.9528 192.857 65.729C192.403 65.4989 191.888 65.3839 191.313 65.3839C190.712 65.3839 190.188 65.5053 189.74 65.7482C189.293 65.9911 188.948 66.3395 188.705 66.7933C188.462 67.2472 188.341 67.7873 188.341 68.4137H184.4C184.4 67.1289 184.691 66.0135 185.272 65.0675C185.854 64.1214 186.669 63.3896 187.717 62.8718C188.766 62.354 189.974 62.0952 191.342 62.0952C192.748 62.0952 193.972 62.3445 195.014 62.843C196.062 63.3352 196.877 64.0192 197.459 64.8949C198.04 65.7706 198.331 66.7741 198.331 67.9055C198.331 68.647 198.184 69.3789 197.89 70.1012C197.603 70.8235 197.088 71.6257 196.347 72.5078C195.605 73.3835 194.56 74.435 193.211 75.6623L190.344 78.4716V78.6058H198.59V82H184.592ZM201.598 82V79.0085L208.588 72.5366C209.183 71.9613 209.681 71.4435 210.084 70.9833C210.493 70.5231 210.803 70.0724 211.014 69.6314C211.225 69.1839 211.33 68.7013 211.33 68.1836C211.33 67.6083 211.199 67.1129 210.937 66.6974C210.675 66.2756 210.317 65.9528 209.863 65.729C209.41 65.4989 208.895 65.3839 208.32 65.3839C207.719 65.3839 207.195 65.5053 206.747 65.7482C206.3 65.9911 205.955 66.3395 205.712 66.7933C205.469 67.2472 205.347 67.7873 205.347 68.4137H201.407C201.407 67.1289 201.698 66.0135 202.279 65.0675C202.861 64.1214 203.676 63.3896 204.724 62.8718C205.772 62.354 206.981 62.0952 208.348 62.0952C209.755 62.0952 210.979 62.3445 212.021 62.843C213.069 63.3352 213.884 64.0192 214.466 64.8949C215.047 65.7706 215.338 66.7741 215.338 67.9055C215.338 68.647 215.191 69.3789 214.897 70.1012C214.609 70.8235 214.095 71.6257 213.353 72.5078C212.612 73.3835 211.567 74.435 210.218 75.6623L207.351 78.4716V78.6058H215.597V82H201.598Z" fill="black"/>
<path d="M174.039 92.5455H175.77L178.78 99.8949H178.891L181.901 92.5455H183.632V102H182.275V95.1584H182.187L179.398 101.986H178.272L175.484 95.1538H175.396V102H174.039V92.5455ZM188.651 102.143C187.952 102.143 187.351 101.994 186.846 101.695C186.344 101.394 185.957 100.971 185.683 100.426C185.412 99.878 185.276 99.2363 185.276 98.5007C185.276 97.7744 185.412 97.1342 185.683 96.5803C185.957 96.0263 186.338 95.5939 186.828 95.283C187.32 94.9722 187.895 94.8168 188.554 94.8168C188.954 94.8168 189.342 94.8829 189.717 95.0153C190.093 95.1476 190.43 95.3554 190.728 95.6385C191.027 95.9216 191.262 96.2894 191.435 96.7418C191.607 97.1912 191.693 97.7375 191.693 98.3807V98.87H186.057V97.8359H190.341C190.341 97.4728 190.267 97.1512 190.119 96.8711C189.971 96.5879 189.764 96.3648 189.496 96.2017C189.231 96.0386 188.92 95.957 188.563 95.957C188.176 95.957 187.837 96.0524 187.548 96.2433C187.261 96.431 187.04 96.6772 186.883 96.9819C186.729 97.2835 186.652 97.6113 186.652 97.9652V98.7731C186.652 99.247 186.735 99.6502 186.901 99.9826C187.071 100.315 187.306 100.569 187.608 100.744C187.909 100.917 188.262 101.003 188.665 101.003C188.926 101.003 189.165 100.966 189.38 100.892C189.596 100.815 189.782 100.701 189.939 100.55C190.096 100.4 190.216 100.213 190.299 99.9918L191.606 100.227C191.501 100.612 191.313 100.949 191.042 101.238C190.775 101.525 190.438 101.748 190.031 101.908C189.628 102.065 189.168 102.143 188.651 102.143ZM193.225 102V94.9091H194.559V96.0355H194.633C194.762 95.6539 194.99 95.3538 195.316 95.1353C195.645 94.9137 196.018 94.8029 196.433 94.8029C196.519 94.8029 196.621 94.806 196.738 94.8121C196.858 94.8183 196.952 94.826 197.02 94.8352V96.1555C196.964 96.1402 196.866 96.1232 196.724 96.1048C196.583 96.0832 196.441 96.0724 196.299 96.0724C195.973 96.0724 195.682 96.1417 195.427 96.2802C195.174 96.4156 194.974 96.6049 194.827 96.848C194.679 97.0881 194.605 97.362 194.605 97.6697V102H193.225ZM200.947 102.143C200.261 102.143 199.67 101.988 199.174 101.677C198.682 101.363 198.303 100.931 198.039 100.38C197.774 99.8287 197.642 99.1978 197.642 98.4869C197.642 97.7667 197.777 97.1312 198.048 96.5803C198.319 96.0263 198.7 95.5939 199.193 95.283C199.685 94.9722 200.265 94.8168 200.933 94.8168C201.472 94.8168 201.952 94.9168 202.373 95.1168C202.795 95.3138 203.135 95.5908 203.394 95.9478C203.655 96.3048 203.811 96.7218 203.86 97.1989H202.517C202.443 96.8665 202.273 96.5803 202.009 96.3402C201.747 96.1001 201.396 95.9801 200.956 95.9801C200.572 95.9801 200.235 96.0817 199.945 96.2848C199.659 96.4848 199.436 96.7711 199.276 97.1435C199.116 97.5128 199.036 97.9498 199.036 98.4545C199.036 98.9716 199.114 99.4179 199.271 99.7933C199.428 100.169 199.65 100.46 199.936 100.666C200.225 100.872 200.565 100.975 200.956 100.975C201.218 100.975 201.455 100.927 201.667 100.832C201.883 100.734 202.063 100.594 202.207 100.412C202.355 100.23 202.458 100.012 202.517 99.7564H203.86C203.811 100.215 203.661 100.624 203.412 100.984C203.163 101.344 202.829 101.628 202.41 101.834C201.995 102.04 201.507 102.143 200.947 102.143ZM205.336 102V94.9091H206.67V96.0355H206.744C206.873 95.6539 207.101 95.3538 207.427 95.1353C207.757 94.9137 208.129 94.8029 208.545 94.8029C208.631 94.8029 208.732 94.806 208.849 94.8121C208.969 94.8183 209.063 94.826 209.131 94.8352V96.1555C209.075 96.1402 208.977 96.1232 208.835 96.1048C208.694 96.0832 208.552 96.0724 208.411 96.0724C208.084 96.0724 207.794 96.1417 207.538 96.2802C207.286 96.4156 207.086 96.6049 206.938 96.848C206.79 97.0881 206.716 97.362 206.716 97.6697V102H205.336ZM213.128 102.143C212.429 102.143 211.827 101.994 211.323 101.695C210.821 101.394 210.433 100.971 210.159 100.426C209.888 99.878 209.753 99.2363 209.753 98.5007C209.753 97.7744 209.888 97.1342 210.159 96.5803C210.433 96.0263 210.815 95.5939 211.304 95.283C211.796 94.9722 212.372 94.8168 213.031 94.8168C213.431 94.8168 213.819 94.8829 214.194 95.0153C214.569 95.1476 214.906 95.3554 215.205 95.6385C215.504 95.9216 215.739 96.2894 215.911 96.7418C216.084 97.1912 216.17 97.7375 216.17 98.3807V98.87H210.533V97.8359H214.817C214.817 97.4728 214.743 97.1512 214.596 96.8711C214.448 96.5879 214.24 96.3648 213.972 96.2017C213.708 96.0386 213.397 95.957 213.04 95.957C212.652 95.957 212.314 96.0524 212.024 96.2433C211.738 96.431 211.516 96.6772 211.359 96.9819C211.206 97.2835 211.129 97.6113 211.129 97.9652V98.7731C211.129 99.247 211.212 99.6502 211.378 99.9826C211.547 100.315 211.783 100.569 212.084 100.744C212.386 100.917 212.738 101.003 213.141 101.003C213.403 101.003 213.642 100.966 213.857 100.892C214.072 100.815 214.259 100.701 214.416 100.55C214.573 100.4 214.693 100.213 214.776 99.9918L216.082 100.227C215.977 100.612 215.79 100.949 215.519 101.238C215.251 101.525 214.914 101.748 214.508 101.908C214.105 102.065 213.645 102.143 213.128 102.143ZM220.356 102.138C219.783 102.138 219.272 101.992 218.823 101.7C218.377 101.404 218.026 100.984 217.771 100.44C217.518 99.8918 217.392 99.2347 217.392 98.4684C217.392 97.7021 217.52 97.0465 217.775 96.5018C218.034 95.957 218.388 95.54 218.837 95.2507C219.286 94.9614 219.796 94.8168 220.365 94.8168C220.805 94.8168 221.159 94.8906 221.427 95.0384C221.698 95.183 221.907 95.3523 222.055 95.5462C222.205 95.7401 222.322 95.9109 222.406 96.0586H222.489V92.5455H223.869V102H222.521V100.897H222.406C222.322 101.047 222.202 101.22 222.045 101.414C221.892 101.608 221.679 101.777 221.408 101.922C221.138 102.066 220.787 102.138 220.356 102.138ZM220.661 100.961C221.058 100.961 221.393 100.857 221.667 100.647C221.944 100.435 222.153 100.141 222.295 99.7656C222.439 99.3902 222.512 98.9531 222.512 98.4545C222.512 97.9621 222.441 97.5312 222.299 97.1619C222.158 96.7926 221.95 96.5049 221.676 96.2987C221.402 96.0924 221.064 95.9893 220.661 95.9893C220.245 95.9893 219.899 96.0971 219.622 96.3125C219.345 96.5279 219.136 96.8219 218.994 97.1942C218.855 97.5666 218.786 97.9867 218.786 98.4545C218.786 98.9285 218.857 99.3548 218.999 99.7333C219.14 100.112 219.349 100.412 219.626 100.634C219.906 100.852 220.251 100.961 220.661 100.961ZM225.839 102V94.9091H227.219V102H225.839ZM226.536 93.815C226.296 93.815 226.09 93.735 225.918 93.5749C225.748 93.4118 225.664 93.2179 225.664 92.9933C225.664 92.7655 225.748 92.5716 225.918 92.4116C226.09 92.2485 226.296 92.1669 226.536 92.1669C226.776 92.1669 226.981 92.2485 227.15 92.4116C227.322 92.5716 227.409 92.7655 227.409 92.9933C227.409 93.2179 227.322 93.4118 227.15 93.5749C226.981 93.735 226.776 93.815 226.536 93.815Z" fill="black"/>
</g>
<mask id="mask5_540_425" style="mask-type:alpha" maskUnits="userSpaceOnUse" x="251" y="39" width="68" height="85">
<rect x="252" y="39" width="67" height="85" rx="13" fill="white"/>
</mask>
<g mask="url(#mask5_540_425)">
<rect x="252" y="39" width="67" height="85" rx="13" fill="white"/>
<path d="M322.033 115.085C328.879 126.548 286.139 134.925 272.5 130.044C258.861 125.164 233.746 133.194 243.436 103.351C249.289 81.6379 246.5 75 291 67.5C335.5 60 314.055 72.877 322.033 115.085Z" fill="#9227F9"/>
<path d="M268.591 82V79.0085L275.581 72.5366C276.175 71.9613 276.674 71.4435 277.077 70.9833C277.486 70.5231 277.796 70.0724 278.007 69.6314C278.218 69.1839 278.323 68.7013 278.323 68.1836C278.323 67.6083 278.192 67.1129 277.93 66.6974C277.668 66.2756 277.31 65.9528 276.856 65.729C276.402 65.4989 275.888 65.3839 275.312 65.3839C274.712 65.3839 274.187 65.5053 273.74 65.7482C273.292 65.9911 272.947 66.3395 272.704 66.7933C272.462 67.2472 272.34 67.7873 272.34 68.4137H268.399C268.399 67.1289 268.69 66.0135 269.272 65.0675C269.854 64.1214 270.669 63.3896 271.717 62.8718C272.765 62.354 273.973 62.0952 275.341 62.0952C276.747 62.0952 277.971 62.3445 279.013 62.843C280.062 63.3352 280.877 64.0192 281.458 64.8949C282.04 65.7706 282.331 66.7741 282.331 67.9055C282.331 68.647 282.184 69.3789 281.89 70.1012C281.602 70.8235 281.088 71.6257 280.346 72.5078C279.605 73.3835 278.56 74.435 277.211 75.6623L274.344 78.4716V78.6058H282.59V82H268.591ZM292.856 82.2685C291.424 82.2685 290.149 82.0224 289.03 81.5302C287.918 81.0316 287.039 80.3477 286.394 79.4783C285.755 78.6026 285.425 77.5927 285.406 76.4485H289.587C289.612 76.9279 289.769 77.3498 290.056 77.7141C290.35 78.0721 290.74 78.3501 291.226 78.5483C291.712 78.7464 292.258 78.8455 292.866 78.8455C293.499 78.8455 294.058 78.7337 294.544 78.5099C295.029 78.2862 295.41 77.9762 295.685 77.5799C295.959 77.1836 296.097 76.7266 296.097 76.2088C296.097 75.6847 295.95 75.2212 295.656 74.8185C295.368 74.4094 294.953 74.0898 294.409 73.8597C293.872 73.6296 293.233 73.5146 292.492 73.5146H290.66V70.4656H292.492C293.118 70.4656 293.671 70.3569 294.151 70.1396C294.636 69.9222 295.013 69.6218 295.282 69.2383C295.55 68.8484 295.685 68.3945 295.685 67.8768C295.685 67.3846 295.566 66.9531 295.33 66.5824C295.1 66.2053 294.774 65.9112 294.352 65.7003C293.936 65.4893 293.451 65.3839 292.894 65.3839C292.332 65.3839 291.817 65.4862 291.351 65.6907C290.884 65.8888 290.51 66.1733 290.229 66.544C289.948 66.9148 289.798 67.3494 289.778 67.848H285.799C285.818 66.7166 286.141 65.7195 286.768 64.8565C287.394 63.9936 288.238 63.3192 289.299 62.8335C290.366 62.3413 291.571 62.0952 292.914 62.0952C294.269 62.0952 295.455 62.3413 296.471 62.8335C297.487 63.3256 298.277 63.9904 298.839 64.8278C299.408 65.6587 299.689 66.592 299.683 67.6275C299.689 68.7269 299.347 69.6442 298.657 70.3793C297.973 71.1143 297.081 71.581 295.982 71.7791V71.9325C297.426 72.1179 298.526 72.6197 299.28 73.4379C300.041 74.2496 300.418 75.266 300.412 76.4869C300.418 77.6055 300.095 78.5994 299.443 79.4688C298.798 80.3381 297.906 81.022 296.768 81.5206C295.63 82.0192 294.326 82.2685 292.856 82.2685Z" fill="black"/>
<path d="M271.713 92.5455H273.135V99.2486C273.135 99.8549 273.015 100.373 272.775 100.804C272.538 101.235 272.204 101.565 271.773 101.792C271.343 102.017 270.838 102.129 270.259 102.129C269.727 102.129 269.248 102.032 268.824 101.838C268.402 101.645 268.068 101.363 267.822 100.994C267.579 100.621 267.457 100.169 267.457 99.6364H268.874C268.874 99.898 268.934 100.124 269.054 100.315C269.177 100.506 269.345 100.655 269.558 100.763C269.773 100.867 270.019 100.92 270.296 100.92C270.598 100.92 270.853 100.857 271.062 100.73C271.275 100.601 271.436 100.412 271.547 100.163C271.658 99.9134 271.713 99.6087 271.713 99.2486V92.5455ZM278.157 102.143C277.458 102.143 276.857 101.994 276.352 101.695C275.85 101.394 275.462 100.971 275.188 100.426C274.918 99.878 274.782 99.2363 274.782 98.5007C274.782 97.7744 274.918 97.1342 275.188 96.5803C275.462 96.0263 275.844 95.5939 276.333 95.283C276.826 94.9722 277.401 94.8168 278.06 94.8168C278.46 94.8168 278.848 94.8829 279.223 95.0153C279.599 95.1476 279.936 95.3554 280.234 95.6385C280.533 95.9216 280.768 96.2894 280.941 96.7418C281.113 97.1912 281.199 97.7375 281.199 98.3807V98.87H275.562V97.8359H279.847C279.847 97.4728 279.773 97.1512 279.625 96.8711C279.477 96.5879 279.269 96.3648 279.002 96.2017C278.737 96.0386 278.426 95.957 278.069 95.957C277.681 95.957 277.343 96.0524 277.054 96.2433C276.767 96.431 276.546 96.6772 276.389 96.9819C276.235 97.2835 276.158 97.6113 276.158 97.9652V98.7731C276.158 99.247 276.241 99.6502 276.407 99.9826C276.576 100.315 276.812 100.569 277.114 100.744C277.415 100.917 277.768 101.003 278.171 101.003C278.432 101.003 278.671 100.966 278.886 100.892C279.102 100.815 279.288 100.701 279.445 100.55C279.602 100.4 279.722 100.213 279.805 99.9918L281.111 100.227C281.007 100.612 280.819 100.949 280.548 101.238C280.28 101.525 279.943 101.748 279.537 101.908C279.134 102.065 278.674 102.143 278.157 102.143ZM287.222 99.0593V94.9091H288.607V102H287.25V100.772H287.176C287.013 101.151 286.752 101.466 286.392 101.718C286.035 101.968 285.59 102.092 285.057 102.092C284.602 102.092 284.199 101.992 283.848 101.792C283.5 101.589 283.226 101.289 283.026 100.892C282.829 100.495 282.731 100.004 282.731 99.4194V94.9091H284.111V99.2532C284.111 99.7364 284.245 100.121 284.513 100.407C284.78 100.694 285.128 100.837 285.556 100.837C285.814 100.837 286.071 100.772 286.327 100.643C286.585 100.513 286.799 100.318 286.969 100.056C287.141 99.7949 287.226 99.4625 287.222 99.0593ZM293.117 102.138C292.544 102.138 292.033 101.992 291.584 101.7C291.138 101.404 290.787 100.984 290.531 100.44C290.279 99.8918 290.153 99.2347 290.153 98.4684C290.153 97.7021 290.281 97.0465 290.536 96.5018C290.794 95.957 291.148 95.54 291.598 95.2507C292.047 94.9614 292.556 94.8168 293.126 94.8168C293.566 94.8168 293.92 94.8906 294.188 95.0384C294.458 95.183 294.668 95.3523 294.815 95.5462C294.966 95.7401 295.083 95.9109 295.166 96.0586H295.249V92.5455H296.63V102H295.282V100.897H295.166C295.083 101.047 294.963 101.22 294.806 101.414C294.652 101.608 294.44 101.777 294.169 101.922C293.898 102.066 293.547 102.138 293.117 102.138ZM293.421 100.961C293.818 100.961 294.154 100.857 294.428 100.647C294.705 100.435 294.914 100.141 295.055 99.7656C295.2 99.3902 295.272 98.9531 295.272 98.4545C295.272 97.9621 295.202 97.5312 295.06 97.1619C294.919 96.7926 294.711 96.5049 294.437 96.2987C294.163 96.0924 293.824 95.9893 293.421 95.9893C293.006 95.9893 292.66 96.0971 292.383 96.3125C292.106 96.5279 291.896 96.8219 291.755 97.1942C291.616 97.5666 291.547 97.9867 291.547 98.4545C291.547 98.9285 291.618 99.3548 291.759 99.7333C291.901 100.112 292.11 100.412 292.387 100.634C292.667 100.852 293.012 100.961 293.421 100.961ZM298.6 102V94.9091H299.98V102H298.6ZM299.297 93.815C299.057 93.815 298.851 93.735 298.678 93.5749C298.509 93.4118 298.424 93.2179 298.424 92.9933C298.424 92.7655 298.509 92.5716 298.678 92.4116C298.851 92.2485 299.057 92.1669 299.297 92.1669C299.537 92.1669 299.742 92.2485 299.911 92.4116C300.083 92.5716 300.169 92.7655 300.169 92.9933C300.169 93.2179 300.083 93.4118 299.911 93.5749C299.742 93.735 299.537 93.815 299.297 93.815Z" fill="black"/>
</g>
<mask id="mask6_540_425" style="mask-type:alpha" maskUnits="userSpaceOnUse" x="335" y="39" width="68" height="85">
<rect x="336" y="39" width="67" height="85" rx="13" fill="white"/>
</mask>
<g mask="url(#mask6_540_425)">
<rect x="336" y="39" width="67" height="85" rx="13" fill="white"/>
<path d="M406.033 115.085C412.879 126.548 370.139 134.925 356.5 130.044C342.861 125.164 317.746 133.194 327.436 103.351C333.289 81.6377 331.5 94.9999 376 87.4999C420.5 79.9999 398.055 72.8769 406.033 115.085Z" fill="#9227F9"/>
<path d="M342.865 92.5455L345.496 100.246H345.603L348.234 92.5455H349.776L346.374 102H344.725L341.323 92.5455H342.865ZM353.376 102.143C352.677 102.143 352.075 101.994 351.571 101.695C351.069 101.394 350.681 100.971 350.407 100.426C350.136 99.878 350.001 99.2363 350.001 98.5007C350.001 97.7744 350.136 97.1342 350.407 96.5803C350.681 96.0263 351.063 95.5939 351.552 95.283C352.045 94.9722 352.62 94.8168 353.279 94.8168C353.679 94.8168 354.067 94.8829 354.442 95.0153C354.818 95.1476 355.155 95.3554 355.453 95.6385C355.752 95.9216 355.987 96.2894 356.159 96.7418C356.332 97.1912 356.418 97.7375 356.418 98.3807V98.87H350.781V97.8359H355.065C355.065 97.4728 354.991 97.1512 354.844 96.8711C354.696 96.5879 354.488 96.3648 354.22 96.2017C353.956 96.0386 353.645 95.957 353.288 95.957C352.9 95.957 352.562 96.0524 352.272 96.2433C351.986 96.431 351.764 96.6772 351.608 96.9819C351.454 97.2835 351.377 97.6113 351.377 97.9652V98.7731C351.377 99.247 351.46 99.6502 351.626 99.9826C351.795 100.315 352.031 100.569 352.332 100.744C352.634 100.917 352.986 101.003 353.389 101.003C353.651 101.003 353.89 100.966 354.105 100.892C354.32 100.815 354.507 100.701 354.664 100.55C354.821 100.4 354.941 100.213 355.024 99.9918L356.33 100.227C356.226 100.612 356.038 100.949 355.767 101.238C355.499 101.525 355.162 101.748 354.756 101.908C354.353 102.065 353.893 102.143 353.376 102.143ZM359.33 97.7898V102H357.949V94.9091H359.274V96.0632H359.362C359.525 95.6877 359.781 95.3861 360.128 95.1584C360.479 94.9306 360.921 94.8168 361.453 94.8168C361.936 94.8168 362.36 94.9183 362.723 95.1214C363.086 95.3215 363.368 95.62 363.568 96.017C363.768 96.4141 363.868 96.9049 363.868 97.4897V102H362.487V97.6559C362.487 97.1419 362.354 96.7403 362.086 96.451C361.818 96.1586 361.45 96.0124 360.982 96.0124C360.662 96.0124 360.378 96.0817 360.128 96.2202C359.882 96.3587 359.687 96.5618 359.542 96.8295C359.401 97.0942 359.33 97.4143 359.33 97.7898ZM368.373 102.138C367.801 102.138 367.29 101.992 366.841 101.7C366.394 101.404 366.044 100.984 365.788 100.44C365.536 99.8918 365.41 99.2347 365.41 98.4684C365.41 97.7021 365.537 97.0465 365.793 96.5018C366.051 95.957 366.405 95.54 366.855 95.2507C367.304 94.9614 367.813 94.8168 368.383 94.8168C368.823 94.8168 369.177 94.8906 369.444 95.0384C369.715 95.183 369.925 95.3523 370.072 95.5462C370.223 95.7401 370.34 95.9109 370.423 96.0586H370.506V92.5455H371.887V102H370.539V100.897H370.423C370.34 101.047 370.22 101.22 370.063 101.414C369.909 101.608 369.697 101.777 369.426 101.922C369.155 102.066 368.804 102.138 368.373 102.138ZM368.678 100.961C369.075 100.961 369.411 100.857 369.684 100.647C369.961 100.435 370.171 100.141 370.312 99.7656C370.457 99.3902 370.529 98.9531 370.529 98.4545C370.529 97.9621 370.459 97.5312 370.317 97.1619C370.175 96.7926 369.968 96.5049 369.694 96.2987C369.42 96.0924 369.081 95.9893 368.678 95.9893C368.263 95.9893 367.916 96.0971 367.639 96.3125C367.362 96.5279 367.153 96.8219 367.012 97.1942C366.873 97.5666 366.804 97.9867 366.804 98.4545C366.804 98.9285 366.875 99.3548 367.016 99.7333C367.158 100.112 367.367 100.412 367.644 100.634C367.924 100.852 368.269 100.961 368.678 100.961ZM373.857 102V94.9091H375.191V96.0355H375.265C375.394 95.6539 375.622 95.3538 375.948 95.1353C376.277 94.9137 376.65 94.8029 377.065 94.8029C377.151 94.8029 377.253 94.806 377.37 94.8121C377.49 94.8183 377.584 94.826 377.651 94.8352V96.1555C377.596 96.1402 377.497 96.1232 377.356 96.1048C377.214 96.0832 377.073 96.0724 376.931 96.0724C376.605 96.0724 376.314 96.1417 376.059 96.2802C375.806 96.4156 375.606 96.6049 375.459 96.848C375.311 97.0881 375.237 97.362 375.237 97.6697V102H373.857ZM381.648 102.143C380.949 102.143 380.348 101.994 379.843 101.695C379.341 101.394 378.954 100.971 378.68 100.426C378.409 99.878 378.273 99.2363 378.273 98.5007C378.273 97.7744 378.409 97.1342 378.68 96.5803C378.954 96.0263 379.335 95.5939 379.825 95.283C380.317 94.9722 380.893 94.8168 381.551 94.8168C381.951 94.8168 382.339 94.8829 382.714 95.0153C383.09 95.1476 383.427 95.3554 383.725 95.6385C384.024 95.9216 384.259 96.2894 384.432 96.7418C384.604 97.1912 384.69 97.7375 384.69 98.3807V98.87H379.054V97.8359H383.338C383.338 97.4728 383.264 97.1512 383.116 96.8711C382.968 96.5879 382.761 96.3648 382.493 96.2017C382.228 96.0386 381.917 95.957 381.56 95.957C381.173 95.957 380.834 96.0524 380.545 96.2433C380.259 96.431 380.037 96.6772 379.88 96.9819C379.726 97.2835 379.649 97.6113 379.649 97.9652V98.7731C379.649 99.247 379.732 99.6502 379.898 99.9826C380.068 100.315 380.303 100.569 380.605 100.744C380.906 100.917 381.259 101.003 381.662 101.003C381.924 101.003 382.162 100.966 382.377 100.892C382.593 100.815 382.779 100.701 382.936 100.55C383.093 100.4 383.213 100.213 383.296 99.9918L384.603 100.227C384.498 100.612 384.31 100.949 384.039 101.238C383.772 101.525 383.435 101.748 383.028 101.908C382.625 102.065 382.165 102.143 381.648 102.143ZM388.876 102.138C388.304 102.138 387.793 101.992 387.344 101.7C386.897 101.404 386.547 100.984 386.291 100.44C386.039 99.8918 385.913 99.2347 385.913 98.4684C385.913 97.7021 386.04 97.0465 386.296 96.5018C386.554 95.957 386.908 95.54 387.358 95.2507C387.807 94.9614 388.316 94.8168 388.886 94.8168C389.326 94.8168 389.68 94.8906 389.947 95.0384C390.218 95.183 390.427 95.3523 390.575 95.5462C390.726 95.7401 390.843 95.9109 390.926 96.0586H391.009V92.5455H392.389V102H391.041V100.897H390.926C390.843 101.047 390.723 101.22 390.566 101.414C390.412 101.608 390.2 101.777 389.929 101.922C389.658 102.066 389.307 102.138 388.876 102.138ZM389.181 100.961C389.578 100.961 389.914 100.857 390.187 100.647C390.464 100.435 390.674 100.141 390.815 99.7656C390.96 99.3902 391.032 98.9531 391.032 98.4545C391.032 97.9621 390.961 97.5312 390.82 97.1619C390.678 96.7926 390.471 96.5049 390.197 96.2987C389.923 96.0924 389.584 95.9893 389.181 95.9893C388.766 95.9893 388.419 96.0971 388.142 96.3125C387.865 96.5279 387.656 96.8219 387.514 97.1942C387.376 97.5666 387.307 97.9867 387.307 98.4545C387.307 98.9285 387.378 99.3548 387.519 99.7333C387.661 100.112 387.87 100.412 388.147 100.634C388.427 100.852 388.772 100.961 389.181 100.961ZM394.36 102V94.9091H395.74V102H394.36ZM395.057 93.815C394.817 93.815 394.61 93.735 394.438 93.5749C394.269 93.4118 394.184 93.2179 394.184 92.9933C394.184 92.7655 394.269 92.5716 394.438 92.4116C394.61 92.2485 394.817 92.1669 395.057 92.1669C395.297 92.1669 395.501 92.2485 395.671 92.4116C395.843 92.5716 395.929 92.7655 395.929 92.9933C395.929 93.2179 395.843 93.4118 395.671 93.5749C395.501 93.735 395.297 93.815 395.057 93.815Z" fill="black"/>
</g>
</g>
<path d="M135.321 23V5.54545H147.236V8.97159H139.54V12.5511H146.477V15.9858H139.54V23H135.321ZM154.518 23.2472C153.149 23.2472 151.967 22.9773 150.973 22.4375C149.984 21.892 149.223 21.1165 148.689 20.1108C148.161 19.0994 147.896 17.8977 147.896 16.5057C147.896 15.1534 148.163 13.9716 148.697 12.9602C149.232 11.9432 149.984 11.1534 150.956 10.5909C151.928 10.0227 153.072 9.73864 154.391 9.73864C155.322 9.73864 156.175 9.88352 156.947 10.1733C157.72 10.4631 158.388 10.892 158.95 11.4602C159.513 12.0284 159.95 12.7301 160.263 13.5653C160.575 14.3949 160.732 15.3466 160.732 16.4205V17.4602H149.354V15.0398H156.854C156.848 14.5966 156.743 14.2017 156.538 13.8551C156.334 13.5085 156.053 13.2386 155.695 13.0455C155.342 12.8466 154.936 12.7472 154.476 12.7472C154.01 12.7472 153.592 12.8523 153.223 13.0625C152.854 13.267 152.561 13.5483 152.345 13.9062C152.129 14.2585 152.016 14.6591 152.004 15.108V17.571C152.004 18.1051 152.109 18.5739 152.32 18.9773C152.53 19.375 152.828 19.6847 153.214 19.9062C153.601 20.1278 154.061 20.2386 154.595 20.2386C154.964 20.2386 155.3 20.1875 155.601 20.0852C155.902 19.983 156.161 19.8324 156.376 19.6335C156.592 19.4347 156.754 19.1903 156.862 18.9006L160.689 19.0114C160.53 19.8693 160.18 20.6165 159.641 21.2528C159.107 21.8835 158.405 22.375 157.536 22.7273C156.666 23.0739 155.661 23.2472 154.518 23.2472ZM152.882 8.24716L154.604 4.40341H158.294L155.72 8.24716H152.882ZM175.207 9.90909L170.716 23H165.943L161.46 9.90909H165.849L168.261 18.9261H168.398L170.818 9.90909H175.207ZM176.805 23V9.90909H180.854V12.2955H180.99C181.229 11.4318 181.618 10.7898 182.158 10.3693C182.697 9.94318 183.325 9.73011 184.041 9.73011C184.234 9.73011 184.433 9.74432 184.638 9.77273C184.842 9.79545 185.033 9.83239 185.209 9.88352V13.5057C185.01 13.4375 184.749 13.3835 184.425 13.3438C184.107 13.304 183.822 13.2841 183.572 13.2841C183.078 13.2841 182.632 13.3949 182.234 13.6165C181.842 13.8324 181.533 14.1364 181.305 14.5284C181.084 14.9148 180.973 15.3693 180.973 15.892V23H176.805ZM186.907 23V9.90909H191.075V23H186.907ZM188.995 8.38352C188.41 8.38352 187.907 8.19034 187.487 7.80398C187.066 7.41193 186.856 6.94034 186.856 6.3892C186.856 5.84375 187.066 5.37784 187.487 4.99148C187.907 4.59943 188.41 4.40341 188.995 4.40341C189.586 4.40341 190.089 4.59943 190.504 4.99148C190.924 5.37784 191.134 5.84375 191.134 6.3892C191.134 6.94034 190.924 7.41193 190.504 7.80398C190.089 8.19034 189.586 8.38352 188.995 8.38352ZM199.847 23.2472C198.477 23.2472 197.295 22.9773 196.301 22.4375C195.313 21.892 194.551 21.1165 194.017 20.1108C193.489 19.0994 193.224 17.8977 193.224 16.5057C193.224 15.1534 193.491 13.9716 194.026 12.9602C194.56 11.9432 195.312 11.1534 196.284 10.5909C197.256 10.0227 198.401 9.73864 199.719 9.73864C200.651 9.73864 201.503 9.88352 202.276 10.1733C203.048 10.4631 203.716 10.892 204.278 11.4602C204.841 12.0284 205.278 12.7301 205.591 13.5653C205.903 14.3949 206.06 15.3466 206.06 16.4205V17.4602H194.682V15.0398H202.182C202.176 14.5966 202.071 14.2017 201.866 13.8551C201.662 13.5085 201.381 13.2386 201.023 13.0455C200.67 12.8466 200.264 12.7472 199.804 12.7472C199.338 12.7472 198.92 12.8523 198.551 13.0625C198.182 13.267 197.889 13.5483 197.673 13.9062C197.457 14.2585 197.344 14.6591 197.332 15.108V17.571C197.332 18.1051 197.438 18.5739 197.648 18.9773C197.858 19.375 198.156 19.6847 198.543 19.9062C198.929 20.1278 199.389 20.2386 199.923 20.2386C200.293 20.2386 200.628 20.1875 200.929 20.0852C201.23 19.983 201.489 19.8324 201.705 19.6335C201.92 19.4347 202.082 19.1903 202.19 18.9006L206.017 19.0114C205.858 19.8693 205.509 20.6165 204.969 21.2528C204.435 21.8835 203.733 22.375 202.864 22.7273C201.994 23.0739 200.989 23.2472 199.847 23.2472ZM208.188 23V9.90909H212.237V12.2955H212.373C212.612 11.4318 213.001 10.7898 213.54 10.3693C214.08 9.94318 214.708 9.73011 215.424 9.73011C215.617 9.73011 215.816 9.74432 216.021 9.77273C216.225 9.79545 216.415 9.83239 216.592 9.88352V13.5057C216.393 13.4375 216.131 13.3835 215.808 13.3438C215.489 13.304 215.205 13.2841 214.955 13.2841C214.461 13.2841 214.015 13.3949 213.617 13.6165C213.225 13.8324 212.915 14.1364 212.688 14.5284C212.467 14.9148 212.356 15.3693 212.356 15.892V23H208.188Z" fill="black"/>
<path d="M305.969 11H307.125L309.844 17.6406H309.938L312.656 11H313.813V19H312.906V12.9219H312.828L310.328 19H309.453L306.953 12.9219H306.875V19H305.969V11ZM317.396 19.1406C317.015 19.1406 316.67 19.069 316.36 18.9258C316.05 18.7799 315.804 18.5703 315.622 18.2969C315.44 18.0208 315.349 17.6875 315.349 17.2969C315.349 16.9531 315.416 16.6745 315.552 16.4609C315.687 16.2448 315.868 16.0755 316.095 15.9531C316.321 15.8307 316.571 15.7396 316.845 15.6797C317.121 15.6172 317.398 15.5677 317.677 15.5313C318.041 15.4844 318.337 15.4492 318.563 15.4258C318.793 15.3997 318.959 15.3568 319.063 15.2969C319.17 15.237 319.224 15.1328 319.224 14.9844V14.9531C319.224 14.5677 319.118 14.2682 318.907 14.0547C318.699 13.8411 318.382 13.7344 317.958 13.7344C317.518 13.7344 317.173 13.8307 316.923 14.0234C316.673 14.2161 316.497 14.4219 316.396 14.6406L315.521 14.3281C315.677 13.9635 315.885 13.6797 316.146 13.4766C316.409 13.2708 316.695 13.1276 317.005 13.0469C317.317 12.9635 317.625 12.9219 317.927 12.9219C318.119 12.9219 318.341 12.9453 318.591 12.9922C318.843 13.0365 319.087 13.1289 319.321 13.2695C319.558 13.4102 319.755 13.6224 319.911 13.9062C320.067 14.1901 320.146 14.5703 320.146 15.0469V19H319.224V18.1875H319.177C319.114 18.3177 319.01 18.457 318.864 18.6055C318.718 18.7539 318.524 18.8802 318.282 18.9844C318.04 19.0885 317.744 19.1406 317.396 19.1406ZM317.536 18.3125C317.901 18.3125 318.208 18.2409 318.458 18.0977C318.711 17.9544 318.901 17.7695 319.028 17.543C319.159 17.3164 319.224 17.0781 319.224 16.8281V15.9844C319.185 16.0312 319.099 16.0742 318.966 16.1133C318.836 16.1497 318.685 16.1823 318.513 16.2109C318.343 16.237 318.178 16.2604 318.017 16.2812C317.858 16.2995 317.729 16.3151 317.63 16.3281C317.39 16.3594 317.166 16.4102 316.958 16.4805C316.752 16.5482 316.586 16.651 316.458 16.7891C316.333 16.9245 316.271 17.1094 316.271 17.3437C316.271 17.6641 316.389 17.9062 316.626 18.0703C316.866 18.2318 317.169 18.3125 317.536 18.3125ZM321.828 19V13H322.719V13.9062H322.781C322.891 13.6094 323.089 13.3685 323.375 13.1836C323.661 12.9987 323.984 12.9062 324.344 12.9062C324.411 12.9062 324.496 12.9076 324.598 12.9102C324.699 12.9128 324.776 12.9167 324.828 12.9219V13.8594C324.797 13.8516 324.725 13.8398 324.613 13.8242C324.504 13.806 324.388 13.7969 324.266 13.7969C323.974 13.7969 323.714 13.8581 323.484 13.9805C323.258 14.1003 323.078 14.2669 322.945 14.4805C322.815 14.6914 322.75 14.9323 322.75 15.2031V19H321.828ZM330.171 14.3437L329.343 14.5781C329.291 14.4401 329.214 14.306 329.112 14.1758C329.013 14.043 328.878 13.9336 328.706 13.8477C328.534 13.7617 328.314 13.7187 328.046 13.7187C327.679 13.7187 327.373 13.8034 327.128 13.9727C326.886 14.1393 326.765 14.3516 326.765 14.6094C326.765 14.8385 326.848 15.0195 327.015 15.1523C327.181 15.2852 327.442 15.3958 327.796 15.4844L328.687 15.7031C329.223 15.8333 329.623 16.0326 329.886 16.3008C330.149 16.5664 330.28 16.9089 330.28 17.3281C330.28 17.6719 330.181 17.9792 329.983 18.25C329.788 18.5208 329.515 18.7344 329.163 18.8906C328.812 19.0469 328.403 19.125 327.937 19.125C327.325 19.125 326.818 18.9922 326.417 18.7266C326.016 18.4609 325.762 18.0729 325.655 17.5625L326.53 17.3437C326.614 17.6667 326.771 17.9089 327.003 18.0703C327.237 18.2318 327.543 18.3125 327.921 18.3125C328.351 18.3125 328.692 18.2214 328.944 18.0391C329.2 17.8542 329.327 17.6328 329.327 17.375C329.327 17.1667 329.254 16.9922 329.108 16.8516C328.963 16.7083 328.739 16.6016 328.437 16.5312L327.437 16.2969C326.887 16.1667 326.483 15.9648 326.226 15.6914C325.97 15.4154 325.843 15.0703 325.843 14.6562C325.843 14.3177 325.938 14.0182 326.128 13.7578C326.321 13.4974 326.582 13.293 326.913 13.1445C327.246 12.9961 327.624 12.9219 328.046 12.9219C328.64 12.9219 329.106 13.0521 329.444 13.3125C329.785 13.5729 330.028 13.9167 330.171 14.3437ZM342.289 19L341.523 18.2443L344.675 15.0923H336.512V13.9986H344.675L341.523 10.8565L342.289 10.0909L346.743 14.5455L342.289 19Z" fill="black"/>
<path d="M5.83665 19L1.3821 14.5455L5.83665 10.0909L6.60227 10.8466L3.45028 13.9986H11.6136V15.0923H3.45028L6.60227 18.2344L5.83665 19ZM21.3262 11H22.2949V16.7187C22.2949 17.2292 22.2012 17.6628 22.0137 18.0195C21.8262 18.3763 21.5618 18.6471 21.2207 18.832C20.8796 19.0169 20.4772 19.1094 20.0137 19.1094C19.5762 19.1094 19.1868 19.0299 18.8457 18.8711C18.5046 18.7096 18.2363 18.4805 18.041 18.1836C17.8457 17.8867 17.748 17.5339 17.748 17.125H18.7012C18.7012 17.3516 18.7572 17.5495 18.8691 17.7187C18.9837 17.8854 19.14 18.0156 19.3379 18.1094C19.5358 18.2031 19.7611 18.25 20.0137 18.25C20.2923 18.25 20.5293 18.1914 20.7246 18.0742C20.9199 17.957 21.0684 17.7852 21.1699 17.5586C21.2741 17.3294 21.3262 17.0495 21.3262 16.7187V11ZM25.877 19.1406C25.4967 19.1406 25.1517 19.069 24.8418 18.9258C24.5319 18.7799 24.2858 18.5703 24.1035 18.2969C23.9212 18.0208 23.8301 17.6875 23.8301 17.2969C23.8301 16.9531 23.8978 16.6745 24.0332 16.4609C24.1686 16.2448 24.3496 16.0755 24.5762 15.9531C24.8027 15.8307 25.0527 15.7396 25.3262 15.6797C25.6022 15.6172 25.8796 15.5677 26.1582 15.5313C26.5228 15.4844 26.8184 15.4492 27.0449 15.4258C27.2741 15.3997 27.4408 15.3568 27.5449 15.2969C27.6517 15.237 27.7051 15.1328 27.7051 14.9844V14.9531C27.7051 14.5677 27.5996 14.2682 27.3887 14.0547C27.1803 13.8411 26.8639 13.7344 26.4395 13.7344C25.9993 13.7344 25.6543 13.8307 25.4043 14.0234C25.1543 14.2161 24.9785 14.4219 24.877 14.6406L24.002 14.3281C24.1582 13.9635 24.3665 13.6797 24.627 13.4766C24.89 13.2708 25.1764 13.1276 25.4863 13.0469C25.7988 12.9635 26.1061 12.9219 26.4082 12.9219C26.6009 12.9219 26.8223 12.9453 27.0723 12.9922C27.3249 13.0365 27.5684 13.1289 27.8027 13.2695C28.0397 13.4102 28.2363 13.6224 28.3926 13.9062C28.5488 14.1901 28.627 14.5703 28.627 15.0469V19H27.7051V18.1875H27.6582C27.5957 18.3177 27.4915 18.457 27.3457 18.6055C27.1999 18.7539 27.0059 18.8802 26.7637 18.9844C26.5215 19.0885 26.2259 19.1406 25.877 19.1406ZM26.0176 18.3125C26.3822 18.3125 26.6895 18.2409 26.9395 18.0977C27.1921 17.9544 27.3822 17.7695 27.5098 17.543C27.64 17.3164 27.7051 17.0781 27.7051 16.8281V15.9844C27.666 16.0312 27.5801 16.0742 27.4473 16.1133C27.3171 16.1497 27.166 16.1823 26.9941 16.2109C26.8249 16.237 26.6595 16.2604 26.498 16.2812C26.3392 16.2995 26.2103 16.3151 26.1113 16.3281C25.8717 16.3594 25.6478 16.4102 25.4395 16.4805C25.2337 16.5482 25.0671 16.651 24.9395 16.7891C24.8145 16.9245 24.752 17.1094 24.752 17.3437C24.752 17.6641 24.8704 17.9062 25.1074 18.0703C25.347 18.2318 25.6504 18.3125 26.0176 18.3125ZM31.2314 15.3906V19H30.3096V13H31.2002V13.9375H31.2783C31.4189 13.6328 31.6325 13.388 31.9189 13.2031C32.2054 13.0156 32.5752 12.9219 33.0283 12.9219C33.4346 12.9219 33.79 13.0052 34.0947 13.1719C34.3994 13.3359 34.6364 13.5859 34.8057 13.9219C34.9749 14.2552 35.0596 14.6771 35.0596 15.1875V19H34.1377V15.25C34.1377 14.7786 34.0153 14.4115 33.7705 14.1484C33.5257 13.8828 33.1898 13.75 32.7627 13.75C32.4684 13.75 32.2054 13.8138 31.9736 13.9414C31.7445 14.069 31.5635 14.2552 31.4307 14.5C31.2979 14.7448 31.2314 15.0417 31.2314 15.3906ZM41.4355 13L39.2168 19H38.2793L36.0605 13H37.0605L38.7168 17.7812H38.7793L40.4355 13H41.4355ZM42.6523 19V13H43.5742V19H42.6523ZM43.1211 12C42.9414 12 42.7865 11.9388 42.6563 11.8164C42.5286 11.694 42.4648 11.5469 42.4648 11.375C42.4648 11.2031 42.5286 11.056 42.6563 10.9336C42.7865 10.8112 42.9414 10.75 43.1211 10.75C43.3008 10.75 43.4544 10.8112 43.582 10.9336C43.7122 11.056 43.7773 11.2031 43.7773 11.375C43.7773 11.5469 43.7122 11.694 43.582 11.8164C43.4544 11.9388 43.3008 12 43.1211 12ZM47.7783 19.125C47.2002 19.125 46.7015 18.9974 46.2822 18.7422C45.8656 18.4844 45.5439 18.125 45.3174 17.6641C45.0934 17.2005 44.9814 16.6615 44.9814 16.0469C44.9814 15.4323 45.0934 14.8906 45.3174 14.4219C45.5439 13.9505 45.859 13.5833 46.2627 13.3203C46.6689 13.0547 47.1429 12.9219 47.6846 12.9219C47.9971 12.9219 48.3057 12.974 48.6104 13.0781C48.915 13.1823 49.1924 13.3516 49.4424 13.5859C49.6924 13.8177 49.8916 14.125 50.04 14.5078C50.1885 14.8906 50.2627 15.362 50.2627 15.9219V16.3125H45.6377V15.5156H49.3252C49.3252 15.1771 49.2575 14.875 49.1221 14.6094C48.9893 14.3437 48.7992 14.1341 48.5518 13.9805C48.307 13.8268 48.0179 13.75 47.6846 13.75C47.3174 13.75 46.9997 13.8411 46.7314 14.0234C46.4658 14.2031 46.2614 14.4375 46.1182 14.7266C45.9749 15.0156 45.9033 15.3255 45.9033 15.6562V16.1875C45.9033 16.6406 45.9814 17.0247 46.1377 17.3398C46.2965 17.6523 46.5166 17.8906 46.7979 18.0547C47.0791 18.2161 47.4059 18.2969 47.7783 18.2969C48.0205 18.2969 48.2393 18.263 48.4346 18.1953C48.6325 18.125 48.8031 18.0208 48.9463 17.8828C49.0895 17.7422 49.2002 17.5677 49.2783 17.3594L50.1689 17.6094C50.0752 17.9115 49.9176 18.1771 49.6963 18.4062C49.4749 18.6328 49.2015 18.8099 48.876 18.9375C48.5505 19.0625 48.1846 19.125 47.7783 19.125ZM51.665 19V13H52.5557V13.9062H52.6182C52.7275 13.6094 52.9255 13.3685 53.2119 13.1836C53.4984 12.9987 53.8213 12.9062 54.1807 12.9062C54.2484 12.9062 54.333 12.9076 54.4346 12.9102C54.5361 12.9128 54.613 12.9167 54.665 12.9219V13.8594C54.6338 13.8516 54.5622 13.8398 54.4502 13.8242C54.3408 13.806 54.2249 13.7969 54.1025 13.7969C53.8109 13.7969 53.5505 13.8581 53.3213 13.9805C53.0947 14.1003 52.915 14.2669 52.7822 14.4805C52.652 14.6914 52.5869 14.9323 52.5869 15.2031V19H51.665Z" fill="black"/>
</svg>
